<?xml version="1.0" encoding="UTF-8" standalone="no"?>
<!-- Created with Inkscape (http://www.inkscape.org/) -->

<svg
   xmlns:dc="http://purl.org/dc/elements/1.1/"
   xmlns:cc="http://creativecommons.org/ns#"
   xmlns:rdf="http://www.w3.org/1999/02/22-rdf-syntax-ns#"
   xmlns:svg="http://www.w3.org/2000/svg"
   xmlns="http://www.w3.org/2000/svg"
   xmlns:sodipodi="http://sodipodi.sourceforge.net/DTD/sodipodi-0.dtd"
   xmlns:inkscape="http://www.inkscape.org/namespaces/inkscape"
   width="150"
   height="150"
   viewBox="0 0 39.6875 39.6875"
   version="1.1"
   id="svg8"
   inkscape:version="0.92.3 (2405546, 2018-03-11)"
   sodipodi:docname="Loader.svg"
   inkscape:export-filename="D:\Archivos en la nube\Dropbox\__Escuela__\Maestria-EE\Técnologia Interactiva\Proyecto\2daEntrega\2 - Prototipo\Iconos SVG\Loader.png"
   inkscape:export-xdpi="96"
   inkscape:export-ydpi="96">
  <defs
     id="defs2" />
  <sodipodi:namedview
     id="base"
     pagecolor="#ffffff"
     bordercolor="#666666"
     borderopacity="1.0"
     inkscape:pageopacity="0.0"
     inkscape:pageshadow="2"
     inkscape:zoom="1.979899"
     inkscape:cx="29.265285"
     inkscape:cy="20.283352"
     inkscape:document-units="mm"
     inkscape:current-layer="layer2"
     showgrid="false"
     inkscape:window-width="1920"
     inkscape:window-height="1027"
     inkscape:window-x="-8"
     inkscape:window-y="-8"
     inkscape:window-maximized="1"
     units="px" />
  <metadata
     id="metadata5">
    <rdf:RDF>
      <cc:Work
         rdf:about="">
        <dc:format>image/svg+xml</dc:format>
        <dc:type
           rdf:resource="http://purl.org/dc/dcmitype/StillImage" />
        <dc:title></dc:title>
      </cc:Work>
    </rdf:RDF>
  </metadata>
  <g
     inkscape:label="Base"
     inkscape:groupmode="layer"
     id="layer1"
     transform="translate(0,-257.3125)"
     style="display:inline"
     sodipodi:insensitive="true" />
  <g
     inkscape:groupmode="layer"
     id="layer2"
     inkscape:label="Dibujo"
     style="display:inline"
     transform="translate(0,-176.2125)">
    <path
       style="opacity:1;vector-effect:none;fill:#939dac;fill-opacity:1;stroke:none;stroke-width:2.08213544;stroke-linecap:butt;stroke-linejoin:miter;stroke-miterlimit:4;stroke-dasharray:none;stroke-dashoffset:0;stroke-opacity:1;paint-order:markers stroke fill"
       d="M 75.931641 3.6132812 C 71.348839 3.5492798 66.743245 3.9256106 62.181641 4.7558594 L 64.205078 15.837891 C 56.521355 17.236467 48.983853 20.164255 42.041016 24.714844 L 35.867188 15.294922 C 27.623754 20.698097 20.865851 27.515733 15.703125 35.21875 L 25.058594 41.496094 C 20.710423 47.983615 17.706377 55.216053 16.138672 62.748047 L 5.1113281 60.453125 C 3.2499199 69.396168 3.0953547 78.695109 4.7558594 87.818359 L 15.837891 85.794922 C 17.236438 93.478701 20.164277 101.01611 24.714844 107.95898 L 15.294922 114.13281 C 20.6981 122.37623 27.515707 129.13415 35.21875 134.29688 L 41.496094 124.94141 C 47.983706 129.28956 55.216057 132.29358 62.748047 133.86133 L 60.453125 144.88867 C 69.396183 146.74998 78.695143 146.90464 87.818359 145.24414 L 85.794922 134.16211 C 93.478645 132.76353 101.01615 129.83575 107.95898 125.28516 L 114.13281 134.70508 C 122.37625 129.3019 129.13415 122.48427 134.29688 114.78125 L 124.94141 108.50391 C 129.28957 102.01638 132.29362 94.783947 133.86133 87.251953 L 144.88867 89.546875 C 146.75009 80.603832 146.90463 71.304891 145.24414 62.181641 L 134.16211 64.205078 C 132.76357 56.521299 129.83573 48.983857 125.28516 42.041016 L 134.70508 35.867188 C 129.30191 27.623811 122.48428 20.865808 114.78125 15.703125 L 108.50391 25.058594 C 102.01629 20.710436 94.783947 17.70642 87.251953 16.138672 L 89.546875 5.1113281 C 85.075358 4.1806762 80.514442 3.6772828 75.931641 3.6132812 z M 75 20.203125 A 7.2663163 7.2663163 0 0 1 82.265625 27.470703 A 7.2663163 7.2663163 0 0 1 75 34.736328 A 7.2663163 7.2663163 0 0 1 67.734375 27.470703 A 7.2663163 7.2663163 0 0 1 75 20.203125 z M 41.498047 34.125 A 7.2663163 7.2663163 0 0 1 46.529297 36.253906 A 7.2663163 7.2663163 0 0 1 46.529297 46.529297 A 7.2663163 7.2663163 0 0 1 36.253906 46.529297 A 7.2663163 7.2663163 0 0 1 36.253906 36.253906 A 7.2663163 7.2663163 0 0 1 41.498047 34.125 z M 108.71484 34.125 A 7.2663163 7.2663163 0 0 1 113.74609 36.253906 A 7.2663163 7.2663163 0 0 1 113.74609 46.529297 A 7.2663163 7.2663163 0 0 1 103.4707 46.529297 A 7.2663163 7.2663163 0 0 1 103.4707 36.253906 A 7.2663163 7.2663163 0 0 1 108.71484 34.125 z M 75 40.220703 A 34.778526 34.778526 0 0 1 109.7793 75 A 34.778526 34.778526 0 0 1 75 109.7793 A 34.778526 34.778526 0 0 1 40.220703 75 A 34.778526 34.778526 0 0 1 75 40.220703 z M 27.470703 67.734375 A 7.2663163 7.2663163 0 0 1 34.736328 75 A 7.2663163 7.2663163 0 0 1 27.470703 82.265625 A 7.2663163 7.2663163 0 0 1 20.203125 75 A 7.2663163 7.2663163 0 0 1 27.470703 67.734375 z M 122.5293 67.734375 A 7.2663163 7.2663163 0 0 1 129.79688 75 A 7.2663163 7.2663163 0 0 1 122.5293 82.265625 A 7.2663163 7.2663163 0 0 1 115.26367 75 A 7.2663163 7.2663163 0 0 1 122.5293 67.734375 z M 41.498047 101.34375 A 7.2663163 7.2663163 0 0 1 46.529297 103.4707 A 7.2663163 7.2663163 0 0 1 46.529297 113.74609 A 7.2663163 7.2663163 0 0 1 36.253906 113.74609 A 7.2663163 7.2663163 0 0 1 36.253906 103.4707 A 7.2663163 7.2663163 0 0 1 41.498047 101.34375 z M 108.71484 101.34375 A 7.2663163 7.2663163 0 0 1 113.74609 103.4707 A 7.2663163 7.2663163 0 0 1 113.74609 113.74609 A 7.2663163 7.2663163 0 0 1 103.4707 113.74609 A 7.2663163 7.2663163 0 0 1 103.4707 103.4707 A 7.2663163 7.2663163 0 0 1 108.71484 101.34375 z M 75 115.26367 A 7.2663163 7.2663163 0 0 1 82.265625 122.5293 A 7.2663163 7.2663163 0 0 1 75 129.79688 A 7.2663163 7.2663163 0 0 1 67.734375 122.5293 A 7.2663163 7.2663163 0 0 1 75 115.26367 z "
       transform="matrix(0.26458333,0,0,0.26458333,0,176.2125)"
       id="path814" />
    <circle
       style="display:inline;opacity:1;vector-effect:none;fill:#dbdee3;fill-opacity:1;stroke:none;stroke-width:0.14929505;stroke-linecap:butt;stroke-linejoin:miter;stroke-miterlimit:4;stroke-dasharray:none;stroke-dashoffset:0;stroke-opacity:1;paint-order:markers stroke fill"
       id="path814-8-5-4"
       cx="19.84375"
       cy="196.05624"
       r="5.1186862" />
    <path
       style="display:inline;opacity:1;vector-effect:none;fill:#b7bec8;fill-opacity:1;stroke:none;stroke-width:0.03252784;stroke-linecap:butt;stroke-linejoin:miter;stroke-miterlimit:4;stroke-dasharray:none;stroke-dashoffset:0;stroke-opacity:1;paint-order:markers stroke fill"
       d="m 23.114672,188.30818 a 1.1152401,1.1152401 0 0 0 -1.461155,0.59392 1.1152401,1.1152401 0 0 0 0.593642,1.46104 1.1152401,1.1152401 0 0 0 1.461041,-0.59365 1.1152401,1.1152401 0 0 0 -0.593528,-1.46131 z m -5.568114,-0.0312 a 1.1152401,1.1152401 0 0 0 -0.868586,-0.012 1.1152401,1.1152401 0 0 0 -0.613356,1.45292 1.1152401,1.1152401 0 0 0 1.452914,0.61336 1.1152401,1.1152401 0 0 0 0.613357,-1.45292 1.1152401,1.1152401 0 0 0 -0.584329,-0.60134 z m 9.504286,4.01228 a 1.1152401,1.1152401 0 0 0 -0.868586,-0.012 1.1152401,1.1152401 0 0 0 -0.613356,1.45292 1.1152401,1.1152401 0 0 0 1.452914,0.61335 1.1152401,1.1152401 0 0 0 0.613356,-1.45291 1.1152401,1.1152401 0 0 0 -0.584328,-0.60135 z m -13.493919,-0.0973 a 1.1152401,1.1152401 0 0 0 -1.461317,0.59353 1.1152401,1.1152401 0 0 0 0.59392,1.46115 1.1152401,1.1152401 0 0 0 1.461039,-0.59364 1.1152401,1.1152401 0 0 0 -0.593642,-1.46104 z m 13.441047,5.67422 a 1.1152401,1.1152401 0 0 0 -1.461041,0.59364 1.1152401,1.1152401 0 0 0 0.593645,1.46104 1.1152401,1.1152401 0 0 0 1.461314,-0.59353 1.1152401,1.1152401 0 0 0 -0.593918,-1.46115 z m -13.46382,-0.0846 a 1.1152401,1.1152401 0 0 0 -0.86847,-0.0123 1.1152401,1.1152401 0 0 0 -0.613357,1.45292 1.1152401,1.1152401 0 0 0 1.452915,0.61335 1.1152401,1.1152401 0 0 0 0.613356,-1.45291 1.1152401,1.1152401 0 0 0 -0.584444,-0.60107 z m 9.504286,4.01229 a 1.1152401,1.1152401 0 0 0 -0.86847,-0.0123 1.1152401,1.1152401 0 0 0 -0.613357,1.45291 1.1152401,1.1152401 0 0 0 1.452915,0.61336 1.1152401,1.1152401 0 0 0 0.613356,-1.45292 1.1152401,1.1152401 0 0 0 -0.584444,-0.60107 z m -5.598099,-0.0443 a 1.1152401,1.1152401 0 0 0 -1.46104,0.59364 1.1152401,1.1152401 0 0 0 0.593527,1.46131 1.1152401,1.1152401 0 0 0 1.461155,-0.59391 1.1152401,1.1152401 0 0 0 -0.593642,-1.46104 z"
       id="path814-8-5-4-0"
       inkscape:connector-curvature="0" />
  </g>
</svg>
