<?xml version="1.0" encoding="UTF-8" standalone="no"?>
<!-- Created with Inkscape (http://www.inkscape.org/) -->

<svg
   xmlns:dc="http://purl.org/dc/elements/1.1/"
   xmlns:cc="http://creativecommons.org/ns#"
   xmlns:rdf="http://www.w3.org/1999/02/22-rdf-syntax-ns#"
   xmlns:svg="http://www.w3.org/2000/svg"
   xmlns="http://www.w3.org/2000/svg"
   xmlns:sodipodi="http://sodipodi.sourceforge.net/DTD/sodipodi-0.dtd"
   xmlns:inkscape="http://www.inkscape.org/namespaces/inkscape"
   width="175"
   height="175"
   viewBox="0 0 46.302083 46.302083"
   version="1.1"
   id="svg8"
   inkscape:version="0.92.3 (2405546, 2018-03-11)"
   sodipodi:docname="AHTECA.svg">
  <defs
     id="defs2" />
  <sodipodi:namedview
     id="base"
     pagecolor="#ffffff"
     bordercolor="#666666"
     borderopacity="1.0"
     inkscape:pageopacity="0.0"
     inkscape:pageshadow="2"
     inkscape:zoom="2.8"
     inkscape:cx="81.073501"
     inkscape:cy="81.269615"
     inkscape:document-units="mm"
     inkscape:current-layer="layer2"
     showgrid="false"
     inkscape:window-width="1920"
     inkscape:window-height="1027"
     inkscape:window-x="-8"
     inkscape:window-y="-8"
     inkscape:window-maximized="1"
     units="px" />
  <metadata
     id="metadata5">
    <rdf:RDF>
      <cc:Work
         rdf:about="">
        <dc:format>image/svg+xml</dc:format>
        <dc:type
           rdf:resource="http://purl.org/dc/dcmitype/StillImage" />
        <dc:title></dc:title>
      </cc:Work>
    </rdf:RDF>
  </metadata>
  <g
     inkscape:label="Base"
     inkscape:groupmode="layer"
     id="layer1"
     transform="translate(0,-250.69792)"
     style="display:inline"
     sodipodi:insensitive="true" />
  <g
     inkscape:groupmode="layer"
     id="layer2"
     inkscape:label="Dibujo"
     style="display:inline"
     transform="translate(0,-169.59792)">
    <path
       style="display:inline;fill:#000000;stroke-width:0.09738968"
       d="M 20.36866,215.21641 C 12.939419,214.2635 6.5308735,209.7975 3.082719,203.17014 0.49226332,198.1913 -0.14790645,192.66403 1.2301744,187.17516 3.239607,179.17165 9.548404,172.85975 17.5791,170.81818 c 2.021931,-0.51399 3.339841,-0.67385 5.565166,-0.67498 3.628091,-0.001 6.650988,0.67957 9.836358,2.21726 2.32,1.11993 4.055455,2.33462 5.923492,4.14597 1.994244,1.93373 3.377454,3.81807 4.542919,6.18882 1.080647,2.1982 1.630994,3.87294 2.064254,6.28162 0.258451,1.43688 0.354627,4.72476 0.182044,6.22353 -1.209176,10.50099 -9.339994,18.73417 -19.770553,20.01943 -1.468916,0.181 -4.129081,0.17935 -5.55412,-0.002 z m 4.073398,-3.19328 c 0.180294,-0.36897 0.965923,-2.24634 1.034749,-2.47268 0.04603,-0.15132 0.142249,-0.21914 0.311035,-0.21914 0.365827,0 0.777002,-0.46684 0.862145,-0.97891 0.03962,-0.23827 0.132586,-0.55157 0.206604,-0.69622 0.07401,-0.14465 0.134561,-0.45762 0.134561,-0.69549 0,-0.41156 0.01834,-0.43987 0.37831,-0.5839 0.283982,-0.11358 0.42932,-0.25673 0.582888,-0.57395 0.383198,-0.79159 0.422664,-1.32892 0.206354,-2.80954 -0.136565,-0.93474 -0.176825,-1.55148 -0.13246,-2.02888 0.05494,-0.59111 0.04098,-0.69462 -0.10107,-0.74912 -0.101991,-0.0392 -0.248861,0.0156 -0.385265,0.14386 -0.261536,0.24569 -0.35398,0.26061 -0.35398,0.0573 0,-0.3007 -0.398994,-0.92121 -0.688648,-1.071 -0.380862,-0.19694 -0.88799,-0.0525 -1.047931,0.29856 -0.161159,0.35371 -0.318307,0.2975 -0.689059,-0.24646 -0.515931,-0.75699 -0.982074,-0.66179 -1.401416,0.28621 -0.203739,0.46057 -0.278845,1.48192 -0.131157,1.7835 0.07172,0.14643 0.03339,0.17043 -0.272249,0.17043 -0.396738,0 -0.833805,0.34623 -0.833805,0.66051 0,0.10032 0.104617,0.44197 0.232474,0.7592 0.127864,0.31724 0.262762,0.76051 0.299782,0.98508 0.06898,0.41843 0.262459,0.67634 0.429786,0.57292 0.05174,-0.0319 0.190968,-0.35347 0.3094,-0.71445 0.118434,-0.36099 0.247611,-0.70014 0.287067,-0.75372 0.03945,-0.0535 0.126981,-0.27268 0.194505,-0.48694 0.211828,-0.67213 0.43773,-0.82283 0.547456,-0.36521 0.08886,0.37055 0.30374,0.77815 0.529011,1.00341 0.228003,0.22802 0.831961,0.25003 1.109068,0.0405 0.287816,-0.21769 0.417448,-0.17318 0.466366,0.16012 0.03812,0.25975 -0.03005,0.38361 -0.476784,0.86613 -0.639131,0.69034 -0.919307,1.29902 -0.983229,2.13605 -0.05492,0.7194 -0.154944,0.97985 -0.376238,0.97985 -0.371826,0 -1.055204,1.24781 -1.224698,2.23622 -0.147146,0.85809 0.01387,2.41449 0.269152,2.60113 0.20328,0.14866 0.563956,-0.001 0.707266,-0.29513 z m -1.99883,-0.76836 c 0.254889,-0.31531 0.364235,-0.57631 0.459017,-1.09563 0.06844,-0.37496 0.254677,-1.00876 0.413879,-1.40849 0.306302,-0.76905 0.295339,-1.09102 -0.04442,-1.30424 -0.219347,-0.13772 -0.530596,0.13994 -0.621637,0.55447 -0.03684,0.16773 -0.133119,0.40594 -0.213958,0.52929 -0.08084,0.12344 -0.20387,0.45271 -0.273417,0.73185 -0.06954,0.27916 -0.198904,0.70476 -0.287464,0.94581 -0.106128,0.28889 -0.141627,0.58207 -0.104135,0.86023 0.09987,0.74077 0.201424,0.76899 0.672127,0.18671 z m -1.240888,-0.50833 c 0.03286,-0.17507 0.0437,-0.42265 0.02413,-0.55018 -0.03435,-0.22391 -0.04136,-0.22116 -0.203227,0.0798 -0.09221,0.17143 -0.167644,0.47261 -0.167644,0.66933 0,0.30397 0.02151,0.33974 0.143509,0.23851 0.07893,-0.0656 0.170378,-0.26236 0.203222,-0.43743 z m -1.039938,-0.91901 c 0.151303,-0.0958 0.126911,-0.10578 -0.748548,-0.3038 -0.756717,-0.17119 -0.856654,-0.001 -0.148074,0.25066 0.435983,0.15549 0.709448,0.17169 0.896622,0.053 z m 1.091133,-0.76391 c 0.06494,-0.56679 0.03096,-0.75618 -0.195607,-1.09014 -0.746336,-1.10021 -0.982353,-1.34269 -1.185003,-1.21743 -0.181385,0.11206 -0.07841,0.51027 0.25226,0.97534 0.255739,0.3597 0.340865,0.57883 0.340865,0.87742 0,0.21891 0.02922,0.4272 0.06494,0.46292 0.08926,0.0893 0.712202,0.0823 0.722557,-0.009 z m -1.469214,-0.36064 c 0,-0.40239 -0.18609,-0.66082 -0.948161,-1.31671 -0.402849,-0.34674 -0.836943,-0.79594 -0.964655,-0.99826 -0.304841,-0.48289 -0.621088,-0.49682 -0.903541,-0.0398 -0.111498,0.18041 -0.202722,0.4035 -0.202722,0.49576 0,0.31711 0.875138,1.20242 1.636468,1.6555 0.87736,0.52213 1.382611,0.59649 1.382611,0.20351 z m 2.190461,-1.12326 c 0.111334,-0.18014 -0.13459,-0.80016 -0.602912,-1.52004 -0.592613,-0.91091 -0.90582,-0.95228 -0.90582,-0.11963 0,0.33131 0.237522,0.71675 0.814525,1.32182 0.39404,0.41321 0.582057,0.49929 0.694207,0.31783 z m 2.121173,-0.72343 c 0.14848,-0.14848 0.241005,-0.36655 0.540667,-1.27436 0.106095,-0.32139 0.260118,-0.75965 0.342287,-0.9739 l 0.1494,-0.38956 -0.485672,-0.48693 c -0.470204,-0.47145 -0.490267,-0.4808 -0.629987,-0.29357 -0.185928,0.24914 -0.502367,1.2745 -0.584569,1.89417 -0.08003,0.60338 0.02225,1.32105 0.215884,1.5147 0.183021,0.18301 0.276471,0.18498 0.45199,0.0101 z m -4.743738,-0.88333 c 0.04907,-0.26159 -0.004,-0.43706 -0.271076,-0.89391 -0.369871,-0.63297 -0.613382,-0.72539 -0.84132,-0.31929 -0.199975,0.35626 -0.07751,0.85636 0.354291,1.44661 0.358971,0.4907 0.36398,0.49347 0.529719,0.29372 0.09203,-0.111 0.194801,-0.34811 0.228386,-0.52713 z m -3.118725,0.12021 c 0.03614,-0.12047 0.232806,-0.39442 0.437026,-0.60868 l 0.371312,-0.38957 -0.339913,-0.68161 c -0.373378,-0.74873 -0.581498,-1.02271 -0.776871,-1.02271 -0.210309,0 -0.741608,1.17168 -0.677308,1.49368 0.06152,0.30801 0.722722,1.42802 0.843055,1.42802 0.04235,0 0.106557,-0.0986 0.142699,-0.21913 z m 6.375131,-0.30322 c 0,-0.57996 -0.534886,-2.43184 -0.755213,-2.6147 -0.118828,-0.0987 -0.184265,-0.0697 -0.370381,0.16372 -0.371438,0.46583 -0.376942,0.6854 -0.03006,1.19896 0.880293,1.30338 1.155655,1.60169 1.155655,1.25202 z m 8.023055,-0.67068 c 0.182221,-0.28731 0.273638,-2.70256 0.102281,-2.70256 -0.125916,0 -0.431829,0.72797 -0.431076,1.02585 2.91e-4,0.10535 -0.07319,0.39708 -0.163238,0.64833 -0.283263,0.79032 0.115017,1.6228 0.492025,1.02838 z m -10.498451,-0.23336 c 0.279533,-0.18316 0.269487,-0.3682 -0.07155,-1.31802 -0.215361,-0.59981 -0.440624,-0.77752 -0.640006,-0.50483 -0.202183,0.2765 -0.146227,0.61041 0.311944,1.86142 0.05802,0.15845 0.106011,0.15383 0.399602,-0.0384 z m 9.736945,-1.88486 c 0.217678,-1.03453 0.417082,-1.34315 0.919767,-1.42353 0.325759,-0.0522 0.397698,-0.11196 0.529085,-0.44034 0.08364,-0.20901 0.152061,-0.49089 0.152061,-0.62637 0,-0.13548 0.06823,-0.37828 0.151617,-0.53955 0.27679,-0.53524 0.44529,-2.51259 0.463842,-5.4431 0.01994,-3.15173 0.05281,-2.91178 -0.920071,-6.7199 -0.820139,-3.21025 -1.378348,-4.94409 -1.712952,-5.3206 -0.17405,-0.19585 -0.554861,-0.41611 -1.063787,-0.6153 -0.435983,-0.17064 -0.892832,-0.41684 -1.015221,-0.54712 l -0.222528,-0.23687 0.576967,-0.002 c 1.264911,-0.004 1.852613,-0.55725 2.615242,-2.45892 0.671222,-1.67374 0.696033,-1.7221 1.035515,-2.01885 0.351959,-0.30766 0.967882,-1.33308 0.967882,-1.6114 0,-0.29839 -1.212425,-1.35099 -1.84199,-1.59914 -0.642995,-0.25346 -1.33698,-0.26667 -1.413071,-0.0268 -0.02988,0.0942 -0.162109,0.90213 -0.293834,1.79551 -0.131731,0.89337 -0.346892,1.94485 -0.478144,2.33659 -0.131254,0.39177 -0.265375,0.89809 -0.298057,1.12518 -0.09733,0.67628 -0.45409,1.50367 -0.774623,1.79644 -0.335558,0.30647 -0.836219,0.36853 -1.035548,0.12831 -0.100158,-0.12076 -0.05905,-0.21426 0.239343,-0.54454 0.491232,-0.54373 0.913352,-1.2275 1.04686,-1.69574 0.06109,-0.21428 0.143306,-0.4334 0.182704,-0.48697 0.0394,-0.0535 0.145061,-0.38121 0.234808,-0.72813 0.08974,-0.34692 0.202782,-0.70477 0.25119,-0.79522 0.169505,-0.31672 0.664623,-2.85765 0.574535,-2.9485 -0.04871,-0.0492 -0.648783,-0.10695 -1.333492,-0.12874 -2.090333,-0.0662 -2.12252,-0.0608 -2.039278,0.35125 0.0285,0.14103 -0.02914,0.60702 -0.12806,1.03553 -0.09893,0.42852 -0.207849,1.04206 -0.242054,1.36346 -0.0342,0.32137 -0.122778,0.71582 -0.196839,0.87651 -0.525107,1.13942 -0.805999,1.65116 -1.269534,2.31286 -0.719539,1.02715 -1.001042,1.93348 -0.841078,2.70795 0.127234,0.61603 0.0046,4.11453 -0.192017,5.47854 -0.08115,0.56299 -0.08121,0.98182 -1.94e-4,1.61352 0.11985,0.93457 0.133396,2.51032 0.02815,3.2747 -0.03687,0.26782 -0.04357,0.64033 -0.01487,0.82781 0.02869,0.18748 0.0052,0.65075 -0.05196,1.02949 -0.07979,0.52771 -0.07568,0.75532 0.0176,0.97392 0.06696,0.15688 0.123702,0.4857 0.126112,0.73069 0.0035,0.35124 0.07757,0.54695 0.350334,0.92521 0.190268,0.26386 0.412253,0.63313 0.4933,0.82062 0.142967,0.33069 0.151728,0.33505 0.293998,0.14608 0.08065,-0.10717 0.233525,-0.30434 0.339717,-0.43825 l 0.193076,-0.24347 -0.04258,0.60671 -0.04258,0.60673 0.412873,0.38057 c 0.641517,0.59132 0.763239,0.63274 1.028852,0.35 0.371776,-0.39573 0.790672,-0.30811 1.481934,0.31 0.201022,0.17974 0.409194,0.3268 0.462603,0.3268 0.184511,0 0.476738,-0.38056 0.575613,-0.74963 0.19431,-0.72529 0.330479,-2.27251 0.221123,-2.51253 -0.108603,-0.23834 -1.666815,-1.5491 -1.746658,-1.46926 -0.02557,0.0256 0.04618,0.19639 0.159414,0.37961 0.404945,0.6552 0.168275,0.62271 -0.592162,-0.0812 -0.319334,-0.29566 -0.749593,-0.62375 -0.956129,-0.72913 -0.425591,-0.21711 -0.680569,-0.52968 -0.680569,-0.83428 0,-0.2163 -0.227269,-0.54132 -1.118696,-1.59986 -0.498928,-0.59247 -0.533215,-0.66632 -0.535011,-1.15243 -0.0024,-0.66757 0.15338,-0.62745 0.425943,0.1097 0.235536,0.63698 0.938153,1.49293 1.453139,1.77027 0.193199,0.10407 0.371513,0.16893 0.396253,0.1442 0.02475,-0.0249 -0.076,-0.46248 -0.223856,-0.97275 -0.147862,-0.51028 -0.299348,-1.29361 -0.336638,-1.74074 -0.101627,-1.21859 -0.283865,-1.41692 -0.858013,-0.93381 -0.593297,0.49924 -0.83421,0.18084 -0.437092,-0.57764 0.196174,-0.37468 0.260072,-0.63766 0.260072,-1.07032 0,-0.47596 0.04559,-0.63319 0.267822,-0.92367 0.19623,-0.25648 0.296924,-0.54531 0.376694,-1.08048 0.05989,-0.40174 0.15906,-0.91253 0.2204,-1.13511 0.118058,-0.42837 0.440058,-0.90291 0.543084,-0.80035 0.03372,0.0336 0.01643,0.42802 -0.0384,0.87652 -0.05482,0.44851 -0.111536,1.73579 -0.125974,2.86066 l -0.02626,2.04517 0.267824,0.57211 c 0.147301,0.31467 0.26782,0.63934 0.26782,0.7215 0,0.1547 0.608371,1.55495 1.045869,2.4072 0.59757,1.16407 1.133921,1.70432 1.69202,1.70432 0.3546,0 0.497971,-0.26637 0.416749,-0.7743 -0.04582,-0.2865 -0.01813,-0.45914 0.103331,-0.64451 0.152603,-0.23291 0.179488,-0.24093 0.335318,-0.10002 0.16204,0.14664 0.402163,0.58804 0.720246,1.32392 0.08103,0.18748 0.261182,0.59015 0.400337,0.89483 0.242579,0.53114 0.32592,0.95559 0.187627,0.95559 -0.03596,0 -0.142756,-0.0701 -0.237336,-0.15562 -0.2319,-0.20988 -0.33476,-0.12315 -0.464427,0.39186 -0.221187,0.87842 -0.03247,1.80893 0.366865,1.80893 0.343626,0 0.327023,0.19462 -0.02927,0.34353 -0.541001,0.22605 -0.761982,0.75601 -0.811083,1.94514 -0.04161,1.00784 0.148869,2.68208 0.365655,3.21385 l 0.119107,0.29217 0.07474,-0.24348 c 0.04111,-0.13391 0.153125,-0.61597 0.248923,-1.07128 z m -11.763146,1.01708 c 0.285521,-0.19998 0.276802,-0.55613 -0.02628,-1.07329 -0.133495,-0.22779 -0.292219,-0.64799 -0.352707,-0.93375 -0.120929,-0.57129 -0.33594,-1.05521 -0.468828,-1.05521 -0.137403,0 -0.299195,0.57609 -0.299195,1.06534 0,0.51001 0.21796,1.43034 0.4408,1.86127 0.165653,0.32034 0.382933,0.36207 0.706207,0.13561 z m -2.899501,-0.67806 c 0.116818,-0.41724 0.138161,-0.43642 0.485953,-0.43642 0.226187,0 0.465735,0.0802 0.633373,0.21208 l 0.269605,0.21208 -0.04651,-1.89204 c -0.03628,-1.47592 -0.08248,-1.97617 -0.21001,-2.2745 -0.251452,-0.58821 -0.380344,-0.32087 -0.458135,0.95022 -0.0658,1.07513 -0.306037,2.20783 -0.46826,2.20783 -0.0441,0 -0.106279,-0.49303 -0.138188,-1.09563 -0.07272,-1.37381 -0.393285,-3.11067 -0.651131,-3.52787 -0.239186,-0.38701 -0.246295,-0.62155 -0.03243,-1.07002 0.177923,-0.37312 0.153398,-0.77068 -0.218102,-3.53538 -0.08826,-0.65685 -0.135457,-1.25943 -0.104885,-1.3391 0.03057,-0.0797 0.155566,-0.14422 0.277769,-0.14342 0.419469,0.002 0.679275,0.22657 0.874305,0.75334 0.104124,0.2812 0.23571,0.51128 0.292429,0.51128 0.192603,0 0.904228,-0.7165 1.316676,-1.32571 0.493988,-0.72962 0.559965,-0.77766 0.731505,-0.53276 0.2481,0.35421 0.313398,0.22159 1.05098,-2.13451 0.512034,-1.63562 1.177254,-3.40863 1.278884,-3.40863 0.04538,0 0.08253,0.26917 0.08253,0.59818 0,0.65122 0.299323,1.80364 0.593831,2.2863 0.327648,0.53698 0.178249,0.78101 -0.316167,0.51639 -0.25519,-0.1366 -0.481136,0.0596 -0.713408,0.61934 -0.0938,0.22606 -0.240178,0.58019 -0.325278,0.78694 -0.08509,0.20676 -0.365023,0.70894 -0.622054,1.116 -0.345845,0.54769 -0.467329,0.83605 -0.467329,1.10927 0,0.46892 0.13917,0.47039 0.377215,0.004 0.219679,-0.43042 2.154918,-2.45262 2.154918,-2.25173 0,0.0757 -0.197215,0.47448 -0.438254,0.88624 -0.241038,0.41177 -0.438255,0.85169 -0.438255,0.97759 0,0.12594 -0.06434,0.314 -0.142986,0.41797 -0.105742,0.13982 -0.143794,0.4773 -0.146085,1.29577 -0.0027,0.94699 -0.03318,1.16029 -0.211617,1.47774 -0.179363,0.31914 -0.194429,0.42652 -0.107743,0.76803 0.07728,0.30449 0.07275,0.39702 -0.01947,0.39702 -0.140065,0 -0.638156,-0.87297 -0.638156,-1.11845 0,-0.27812 -0.299668,-0.81859 -0.486809,-0.87799 -0.103546,-0.033 -0.325515,0.0458 -0.539834,0.1912 -0.363241,0.2465 -0.726372,0.32586 -0.726372,0.15876 0,-0.0485 0.215272,-0.24291 0.478382,-0.43194 0.557709,-0.40067 0.674059,-0.6562 0.452654,-0.99413 -0.201352,-0.30728 -0.574381,-0.31087 -0.970538,-0.0101 -0.165748,0.12622 -0.485938,0.32343 -0.711533,0.43833 -0.542886,0.2765 -0.637653,0.6343 -0.59416,2.24337 0.02819,1.04285 0.06549,1.28665 0.247425,1.6175 0.117833,0.21426 0.32674,0.62396 0.464244,0.91045 0.175524,0.36572 0.332928,0.5522 0.528363,0.62596 0.153098,0.0577 0.346183,0.21988 0.429072,0.36021 0.08289,0.14032 0.259505,0.31336 0.392473,0.38452 0.212072,0.11347 0.275722,0.10524 0.518305,-0.0676 0.327382,-0.23311 0.72804,-0.31166 0.782143,-0.1533 0.02114,0.062 -0.116526,0.16366 -0.305943,0.22617 -0.439145,0.14493 -0.736988,0.5231 -0.736988,0.93575 0,0.73641 0.490497,2.0855 0.75824,2.0855 0.07128,0 0.335225,-0.19429 0.586537,-0.43179 0.425907,-0.40244 0.456315,-0.46361 0.447868,-0.90084 -0.005,-0.25801 0.0097,-0.4143 0.03246,-0.34734 0.06977,0.20451 0.26981,0.1366 0.494987,-0.16793 0.117778,-0.15931 0.355203,-0.3262 0.527593,-0.37086 0.370925,-0.0961 0.5264,-0.48352 0.420535,-1.04782 -0.06411,-0.34173 -0.08185,-0.35575 -0.377336,-0.29797 -0.170533,0.0333 -0.507276,0.16099 -0.748315,0.28364 -0.3728,0.1897 -0.453237,0.28439 -0.53857,0.63391 -0.07892,0.32334 -0.125636,0.3856 -0.219126,0.29211 -0.193328,-0.19332 -0.146885,-0.64215 0.07369,-0.71216 0.105871,-0.0336 0.314046,-0.20392 0.462602,-0.37845 0.148552,-0.17454 0.415925,-0.41835 0.594159,-0.54179 0.262408,-0.18177 0.312764,-0.26948 0.264684,-0.46105 -0.05204,-0.20737 -0.03697,-0.22458 0.122203,-0.1394 0.09987,0.0535 0.238121,0.16532 0.307231,0.24858 0.140523,0.16933 0.393971,0.20407 0.393971,0.054 0,-0.0535 0.04382,-0.0973 0.09739,-0.0973 0.05414,0 0.09739,0.26018 0.09739,0.58577 0,0.53223 0.03065,0.619 0.335299,0.94954 0.297889,0.32319 0.351546,0.34747 0.480897,0.21769 0.141233,-0.1417 0.644649,-1.51807 0.644649,-1.76251 0,-0.0667 0.06506,-0.19313 0.144576,-0.28099 0.130021,-0.14367 0.09638,-0.2119 -0.333942,-0.67754 l -0.478515,-0.51779 -0.237217,0.25596 c -0.369704,0.39892 -0.405827,0.30343 -0.0966,-0.25533 l 0.282974,-0.51128 -0.168338,-0.68172 c -0.09259,-0.37496 -0.171913,-0.80226 -0.176284,-0.94958 -0.0113,-0.38376 -0.263906,-0.3403 -0.517212,0.089 -0.277984,0.47115 -0.318513,0.29266 -0.130175,-0.57329 0.231563,-1.06469 0.343921,-2.64846 0.406098,-5.72429 0.03684,-1.82244 0.108004,-3.07661 0.207227,-3.65211 0.211626,-1.22746 0.252823,-2.07195 0.132753,-2.72144 -0.13152,-0.71147 -0.576616,-1.70979 -0.762298,-1.70979 -0.07816,0 -0.280343,-0.072 -0.449301,-0.15993 -0.168956,-0.088 -0.372934,-0.19076 -0.453279,-0.22846 -0.08034,-0.0377 -0.198393,-0.21773 -0.262325,-0.40006 -0.136648,-0.38976 -0.164161,-1.22241 -0.04286,-1.29739 0.11164,-0.0691 0.361325,0.22266 0.451669,0.52761 0.09351,0.3156 0.24267,0.4987 0.351499,0.43143 0.187677,-0.11595 0.09107,-1.8442 -0.159758,-2.85796 -0.135359,-0.54707 -0.244039,-1.20003 -0.241508,-1.451 0.0024,-0.25098 -0.02255,-0.86171 -0.05574,-1.35717 -0.05159,-0.77014 -0.08509,-0.90086 -0.230828,-0.90086 -0.254434,0 -0.805043,0.44591 -2.050108,1.66029 -0.615989,0.60081 -1.348744,1.24532 -1.628345,1.43221 -0.587093,0.39245 -1.672098,0.8129 -2.681147,1.03896 -0.323711,0.0727 -0.362018,0.34782 -0.04869,0.34996 0.320453,0.002 0.408368,0.0871 0.704295,0.68023 0.804135,1.61179 0.927065,1.72558 2.319961,2.14763 0.486003,0.14725 0.684085,0.25768 0.743335,0.41438 0.04442,0.11758 0.06426,0.24188 0.04407,0.27645 -0.02019,0.0346 -0.307108,0.0603 -0.6376,0.0573 -0.544562,-0.005 -0.62126,0.0199 -0.818119,0.26676 -0.119472,0.14983 -0.337305,0.58427 -0.484073,0.96542 -0.146771,0.38114 -0.344119,0.82446 -0.438554,0.98514 -0.34794,0.59205 -0.87333,2.00938 -0.87333,2.35592 0,0.19646 0.04109,0.49175 0.09132,0.65626 0.386367,1.26535 0.635605,2.96406 0.400383,2.72883 -0.05096,-0.051 -0.208074,-0.39934 -0.349172,-0.77425 -0.269385,-0.71573 -0.395086,-0.92509 -0.555459,-0.92509 -0.130652,0 0.0021,1.38619 0.17161,1.79186 0.07133,0.17072 0.15722,0.59338 0.190865,0.93925 l 0.06118,0.62884 -0.419267,-0.4499 c -0.518119,-0.55597 -1.765092,-1.4492 -2.023126,-1.4492 -0.271769,0 -0.392711,0.29091 -0.392113,0.94315 5.92e-4,0.65409 0.302483,2.53229 0.584639,3.63739 0.162886,0.63795 0.19396,1.08172 0.19396,2.76984 0,2.03587 0.08276,2.7183 0.381338,3.14449 0.135499,0.1934 0.210699,0.21305 0.616906,0.1613 l 0.4626,-0.059 5.94e-4,0.66652 c 4.07e-4,0.40159 0.0586,0.77773 0.146519,0.94631 0.188009,0.36049 0.399482,1.184 0.540882,2.10626 0.0616,0.40173 0.133105,0.76542 0.158918,0.8082 0.08972,0.14868 0.298213,-0.13282 0.419663,-0.56658 z m 5.161135,-5.40641 c 0,-0.29612 0.234237,-0.97078 0.337046,-0.97078 0.05153,0 -0.0027,0.55927 -0.101551,1.04696 -0.06528,0.32198 -0.235488,0.26693 -0.235488,-0.0763 z m -6.370923,4.86438 c -0.122639,-0.92446 -0.677363,-2.03696 -1.01569,-2.03696 -0.139142,0 0.05393,0.74163 0.367611,1.41216 0.150355,0.32139 0.32205,0.70485 0.381544,0.85217 0.185709,0.45977 0.340205,0.32799 0.266535,-0.22737 z m 6.997662,-0.13827 c 0.246766,-0.32353 0.252467,-0.35518 0.109615,-0.60868 -0.08288,-0.14709 -0.193725,-0.38794 -0.246331,-0.53525 -0.133243,-0.37308 -0.258744,-0.33511 -0.478809,0.14495 -0.174046,0.37966 -0.177471,0.44019 -0.04268,0.75476 0.0806,0.1881 0.169163,0.39679 0.196812,0.46375 0.08016,0.19413 0.18332,0.14503 0.46139,-0.21953 z m 0.931497,-1.1975 c 0,-0.3465 -0.132809,-0.6038 -0.311649,-0.6038 -0.123506,0 -0.09043,0.72763 0.03896,0.85702 0.199282,0.19928 0.272692,0.13112 0.272692,-0.25322 z m -2.738474,-7.46421 c 0.217567,-0.86405 0.08793,-1.2311 -0.272809,-0.77247 -0.22988,0.29223 -0.247921,0.46167 -0.09566,0.89844 0.145596,0.41767 0.239678,0.38551 0.368469,-0.12594 z m -1.414849,-1.58874 c -0.03907,-0.14936 -0.130637,-0.21854 -0.289266,-0.21854 -0.127668,0 -0.232117,0.044 -0.232117,0.0973 0,0.0536 0.06572,0.0973 0.146085,0.0973 0.09398,0 0.146085,0.0943 0.146085,0.26435 0,0.23259 0.0172,0.24715 0.143183,0.12119 0.08548,-0.0855 0.120144,-0.23129 0.08602,-0.36175 z"
       id="path814"
       inkscape:connector-curvature="0"
       sodipodi:nodetypes="cssccccccssccccsccscsccccsccccsssccccccccccccsscccccccccccccccccsccccccccccccscccscccsssscsscccccccccccccccscccccccscsccccccccscccccccccccccsccccccccccsccccsccccccccccccccccccccccccccccccccsccccccscccccscccsccccscccscscccccsccsccccccccccssccccscccccscccccccsccssscccccscsssccccssccsccccccccccccsssccccccccccccccccsssccscccccccccscccscccccccccsccccccccccccscccsccccsccsccccccccccsccccscccccccccccscccccccccssssccc" />
  </g>
</svg>
