<?xml version="1.0" encoding="UTF-8" standalone="no"?>
<!-- Created with Inkscape (http://www.inkscape.org/) -->

<svg
   xmlns:dc="http://purl.org/dc/elements/1.1/"
   xmlns:cc="http://creativecommons.org/ns#"
   xmlns:rdf="http://www.w3.org/1999/02/22-rdf-syntax-ns#"
   xmlns:svg="http://www.w3.org/2000/svg"
   xmlns="http://www.w3.org/2000/svg"
   xmlns:sodipodi="http://sodipodi.sourceforge.net/DTD/sodipodi-0.dtd"
   xmlns:inkscape="http://www.inkscape.org/namespaces/inkscape"
   width="300"
   height="175"
   viewBox="0 0 79.375 46.302083"
   version="1.1"
   id="svg8"
   inkscape:version="0.92.3 (2405546, 2018-03-11)"
   sodipodi:docname="Calendario.svg">
  <defs
     id="defs2" />
  <sodipodi:namedview
     id="base"
     pagecolor="#ffffff"
     bordercolor="#666666"
     borderopacity="1.0"
     inkscape:pageopacity="0.0"
     inkscape:pageshadow="2"
     inkscape:zoom="2.8"
     inkscape:cx="87.904154"
     inkscape:cy="76.339528"
     inkscape:document-units="mm"
     inkscape:current-layer="layer2"
     showgrid="false"
     inkscape:window-width="1920"
     inkscape:window-height="1027"
     inkscape:window-x="-8"
     inkscape:window-y="-8"
     inkscape:window-maximized="1"
     units="px" />
  <metadata
     id="metadata5">
    <rdf:RDF>
      <cc:Work
         rdf:about="">
        <dc:format>image/svg+xml</dc:format>
        <dc:type
           rdf:resource="http://purl.org/dc/dcmitype/StillImage" />
        <dc:title />
      </cc:Work>
    </rdf:RDF>
  </metadata>
  <g
     inkscape:label="Base"
     inkscape:groupmode="layer"
     id="layer1"
     transform="translate(0,-250.69792)"
     style="display:inline"
     sodipodi:insensitive="true" />
  <g
     inkscape:groupmode="layer"
     id="layer2"
     inkscape:label="Dibujo"
     style="display:inline"
     transform="translate(0,-169.59792)">
    <g
       id="g4643"
       transform="translate(0,-1.0603683)">
      <path
         sodipodi:nodetypes="ccccc"
         id="rect2095-1-7-1"
         d="m 19.365513,172.53088 h 40.643974 v 42.5569 H 19.365513 Z"
         style="display:inline;opacity:1;fill:#28170b;fill-opacity:1;stroke:#000000;stroke-width:0.43576825;stroke-miterlimit:4;stroke-dasharray:none;stroke-dashoffset:0"
         inkscape:connector-curvature="0" />
      <g
         transform="translate(2.8820705)"
         id="g891">
        <path
           inkscape:connector-curvature="0"
           style="opacity:1;fill:#ececec;fill-opacity:1;stroke:#000000;stroke-width:0.37431219;stroke-miterlimit:4;stroke-dasharray:none;stroke-dashoffset:0"
           d="m 19.438683,178.26428 h 34.733493 v 34.7335 H 19.438683 Z"
           id="rect2095-15-9" />
        <path
           inkscape:connector-curvature="0"
           style="display:inline;opacity:1;fill:#ffffff;fill-opacity:1;stroke:#000000;stroke-width:0.10569883;stroke-miterlimit:4;stroke-dasharray:none;stroke-dashoffset:0"
           d="m 20.514147,201.50422 h 9.808096 v 9.8081 h -9.808096 z"
           id="rect2095-3-2-6" />
        <path
           inkscape:connector-curvature="0"
           style="display:inline;opacity:1;fill:#ffffff;fill-opacity:1;stroke:#000000;stroke-width:0.10569883;stroke-miterlimit:4;stroke-dasharray:none;stroke-dashoffset:0"
           d="m 43.288616,201.50422 h 9.808097 v 9.80809 h -9.808097 z"
           id="rect2095-3-5-44-7" />
        <path
           inkscape:connector-curvature="0"
           style="display:inline;opacity:1;fill:#ffffff;fill-opacity:1;stroke:#000000;stroke-width:0.10569883;stroke-miterlimit:4;stroke-dasharray:none;stroke-dashoffset:0"
           d="m 31.901381,201.50422 h 9.808097 v 9.8081 h -9.808097 z"
           id="rect2095-3-5-8-0-1" />
        <path
           inkscape:connector-curvature="0"
           style="display:inline;opacity:1;fill:#ffffff;fill-opacity:1;stroke:#000000;stroke-width:0.10569883;stroke-miterlimit:4;stroke-dasharray:none;stroke-dashoffset:0"
           d="m 20.514146,190.36562 h 9.808096 v 9.80809 h -9.808096 z"
           id="rect2095-3-0-6-0" />
        <path
           inkscape:connector-curvature="0"
           style="display:inline;opacity:1;fill:#ffffff;fill-opacity:1;stroke:#000000;stroke-width:0.10569883;stroke-miterlimit:4;stroke-dasharray:none;stroke-dashoffset:0"
           d="m 43.288616,190.36562 h 9.808097 v 9.80809 h -9.808097 z"
           id="rect2095-3-5-1-49-5" />
        <path
           inkscape:connector-curvature="0"
           style="display:inline;opacity:1;fill:#ffffff;fill-opacity:1;stroke:#000000;stroke-width:0.10569883;stroke-miterlimit:4;stroke-dasharray:none;stroke-dashoffset:0"
           d="m 31.90138,190.36562 h 9.808097 v 9.80809 H 31.90138 Z"
           id="rect2095-3-5-8-6-4-9" />
        <path
           inkscape:connector-curvature="0"
           style="display:inline;opacity:1;fill:#ffffff;fill-opacity:1;stroke:#000000;stroke-width:0.10569883;stroke-miterlimit:4;stroke-dasharray:none;stroke-dashoffset:0"
           d="m 20.514146,179.71128 h 9.808096 v 9.8081 h -9.808096 z"
           id="rect2095-3-0-0-93-8" />
        <path
           inkscape:connector-curvature="0"
           style="display:inline;opacity:1;fill:#ffffff;fill-opacity:1;stroke:#000000;stroke-width:0.10569883;stroke-miterlimit:4;stroke-dasharray:none;stroke-dashoffset:0"
           d="m 43.288616,179.71128 h 9.808097 v 9.8081 h -9.808097 z"
           id="rect2095-3-5-1-9-1-7" />
        <path
           inkscape:connector-curvature="0"
           style="display:inline;opacity:1;fill:#ffffff;fill-opacity:1;stroke:#000000;stroke-width:0.10569883;stroke-miterlimit:4;stroke-dasharray:none;stroke-dashoffset:0"
           d="m 31.90138,179.71128 h 9.808097 v 9.8081 H 31.90138 Z"
           id="rect2095-3-5-8-6-3-02-0" />
        <g
           id="text2255-7-9"
           style="font-style:normal;font-weight:normal;font-size:5.65763664px;line-height:1.25;font-family:sans-serif;letter-spacing:0px;word-spacing:0px;fill:#000000;fill-opacity:1;stroke:none;stroke-width:0.14144091"
           aria-label="1"
           transform="matrix(0.91518873,0,0,0.91518873,110.67525,156.29931)">
          <path
             inkscape:connector-curvature="0"
             id="path847"
             style="stroke-width:0.14144091"
             d="m -94.305721,32.53268 h 0.911631 v -3.146508 l -0.991744,0.198901 V 29.07677 l 0.986219,-0.198901 h 0.558029 v 3.654811 h 0.91163 v 0.469628 h -2.375765 z" />
        </g>
        <g
           id="text2255-1-69-7"
           style="font-style:normal;font-weight:normal;font-size:5.65763664px;line-height:1.25;font-family:sans-serif;letter-spacing:0px;word-spacing:0px;display:inline;fill:#000000;fill-opacity:1;stroke:none;stroke-width:0.14144091"
           aria-label="2"
           transform="matrix(0.91518873,0,0,0.91518873,110.67525,156.29931)">
          <path
             inkscape:connector-curvature="0"
             id="path844"
             style="stroke-width:0.14144091"
             d="m -81.353532,32.569976 h 1.947575 v 0.469628 h -2.618867 v -0.469628 q 0.31769,-0.328739 0.864668,-0.881243 0.549741,-0.555266 0.69063,-0.715492 0.267964,-0.301115 0.37294,-0.508303 0.107738,-0.209952 0.107738,-0.411616 0,-0.328739 -0.232051,-0.535928 -0.229289,-0.207189 -0.599467,-0.207189 -0.262439,0 -0.555266,0.09116 -0.290064,0.09116 -0.621566,0.276252 v -0.563554 q 0.337027,-0.135363 0.629854,-0.204426 0.292826,-0.06906 0.535928,-0.06906 0.640904,0 1.022132,0.320452 0.381227,0.320452 0.381227,0.856381 0,0.254151 -0.09669,0.48344 -0.09393,0.226527 -0.345315,0.535929 -0.06906,0.08011 -0.43924,0.464103 -0.370177,0.381227 -1.044232,1.069094 z" />
        </g>
        <g
           id="text2255-1-8-0-9"
           style="font-style:normal;font-weight:normal;font-size:5.65763664px;line-height:1.25;font-family:sans-serif;letter-spacing:0px;word-spacing:0px;display:inline;fill:#000000;fill-opacity:1;stroke:none;stroke-width:0.14144091"
           aria-label="3"
           transform="matrix(0.91518873,0,0,0.91518873,110.67525,156.29931)">
          <path
             inkscape:connector-curvature="0"
             id="path841"
             style="stroke-width:0.14144091"
             d="m -67.76597,30.775719 q 0.400565,0.08564 0.624329,0.356365 0.226526,0.270727 0.226526,0.668529 0,0.610517 -0.419902,0.944781 -0.419903,0.334265 -1.193408,0.334265 -0.259677,0 -0.535929,-0.05249 -0.273489,-0.04973 -0.566316,-0.151938 V 32.33654 q 0.232052,0.135363 0.508303,0.204426 0.276252,0.06906 0.577367,0.06906 0.524878,0 0.798367,-0.207189 0.276252,-0.207189 0.276252,-0.602229 0,-0.364652 -0.256914,-0.569078 -0.254152,-0.207189 -0.709967,-0.207189 h -0.480678 v -0.458578 h 0.502778 q 0.411615,0 0.629854,-0.162989 0.218239,-0.165751 0.218239,-0.475153 0,-0.317689 -0.226526,-0.486203 -0.223764,-0.171276 -0.643667,-0.171276 -0.229289,0 -0.491728,0.04972 -0.262439,0.04973 -0.577367,0.154701 V 28.97732 q 0.31769,-0.0884 0.593942,-0.132601 0.279014,-0.0442 0.524878,-0.0442 0.635379,0 1.005557,0.290064 0.370177,0.287302 0.370177,0.77903 0,0.342552 -0.196139,0.580129 -0.196138,0.234814 -0.558028,0.325977 z" />
        </g>
        <g
           id="text2255-1-8-6-8-9"
           style="font-style:normal;font-weight:normal;font-size:5.65763664px;line-height:1.25;font-family:sans-serif;letter-spacing:0px;word-spacing:0px;display:inline;fill:#000000;fill-opacity:1;stroke:none;stroke-width:0.14144091"
           aria-label="4"
           transform="matrix(0.91518873,0,0,0.91518873,110.67525,156.29931)">
          <path
             inkscape:connector-curvature="0"
             id="path835"
             style="stroke-width:0.14144091"
             d="m -92.798762,41.005746 -1.408884,2.201727 h 1.408884 z m -0.146413,-0.486203 h 0.701679 v 2.68793 h 0.588417 v 0.464103 h -0.588417 v 0.972406 h -0.555266 v -0.972406 h -1.861937 v -0.538691 z" />
        </g>
        <g
           id="text2255-1-8-6-7-06-0"
           style="font-style:normal;font-weight:normal;font-size:5.65763664px;line-height:1.25;font-family:sans-serif;letter-spacing:0px;word-spacing:0px;display:inline;fill:#000000;fill-opacity:1;stroke:none;stroke-width:0.14144091"
           aria-label="5"
           transform="matrix(0.91518873,0,0,0.91518873,110.67525,156.29931)">
          <path
             inkscape:connector-curvature="0"
             id="path838"
             style="stroke-width:0.14144091"
             d="m -81.875651,40.479485 h 2.190676 v 0.469628 h -1.679611 v 1.011081 q 0.121551,-0.04144 0.243102,-0.06077 0.121551,-0.0221 0.243102,-0.0221 0.690629,0 1.093957,0.378465 0.403327,0.378465 0.403327,1.024894 0,0.665767 -0.414377,1.035944 -0.414378,0.367415 -1.168546,0.367415 -0.259676,0 -0.530403,-0.0442 -0.267964,-0.0442 -0.555266,-0.132601 V 43.94645 q 0.248627,0.135363 0.513828,0.201663 0.265202,0.0663 0.560791,0.0663 0.477916,0 0.75693,-0.251389 0.279015,-0.251389 0.279015,-0.682342 0,-0.430953 -0.279015,-0.682342 -0.279014,-0.251389 -0.75693,-0.251389 -0.223764,0 -0.447528,0.04973 -0.221001,0.04972 -0.453052,0.154701 z" />
        </g>
      </g>
      <path
         sodipodi:nodetypes="ccccc"
         id="rect2095-1-7-1-2"
         d="m 17.778013,172.53088 h 43.818974 v 6.0444 H 17.778013 Z"
         style="display:inline;opacity:1;fill:#502d16;fill-opacity:1;stroke:#000000;stroke-width:0.43576828;stroke-miterlimit:4;stroke-dasharray:none;stroke-dashoffset:0"
         inkscape:connector-curvature="0" />
    </g>
  </g>
</svg>
