<?xml version="1.0" encoding="UTF-8" standalone="no"?>
<!-- Created with Inkscape (http://www.inkscape.org/) -->

<svg
   xmlns:dc="http://purl.org/dc/elements/1.1/"
   xmlns:cc="http://creativecommons.org/ns#"
   xmlns:rdf="http://www.w3.org/1999/02/22-rdf-syntax-ns#"
   xmlns:svg="http://www.w3.org/2000/svg"
   xmlns="http://www.w3.org/2000/svg"
   xmlns:sodipodi="http://sodipodi.sourceforge.net/DTD/sodipodi-0.dtd"
   xmlns:inkscape="http://www.inkscape.org/namespaces/inkscape"
   width="175"
   height="175"
   viewBox="0 0 46.302083 46.302083"
   version="1.1"
   id="svg8"
   inkscape:version="0.92.3 (2405546, 2018-03-11)"
   sodipodi:docname="DIFXalapa.svg">
  <defs
     id="defs2" />
  <sodipodi:namedview
     id="base"
     pagecolor="#ffffff"
     bordercolor="#666666"
     borderopacity="1.0"
     inkscape:pageopacity="0.0"
     inkscape:pageshadow="2"
     inkscape:zoom="2.8"
     inkscape:cx="19.622028"
     inkscape:cy="38.571797"
     inkscape:document-units="mm"
     inkscape:current-layer="layer2"
     showgrid="false"
     inkscape:window-width="1920"
     inkscape:window-height="1027"
     inkscape:window-x="-8"
     inkscape:window-y="-8"
     inkscape:window-maximized="1"
     units="px"
     showguides="true"
     inkscape:guide-bbox="true">
    <sodipodi:guide
       position="34.745038,46.237628"
       orientation="0,1"
       id="guide841"
       inkscape:locked="false" />
    <sodipodi:guide
       position="23.519718,-0.26726953"
       orientation="0,1"
       id="guide843"
       inkscape:locked="false" />
    <sodipodi:guide
       position="0.13363476,26.058779"
       orientation="1,0"
       id="guide845"
       inkscape:locked="false" />
    <sodipodi:guide
       position="46.237628,25.123335"
       orientation="1,0"
       id="guide847"
       inkscape:locked="false" />
  </sodipodi:namedview>
  <metadata
     id="metadata5">
    <rdf:RDF>
      <cc:Work
         rdf:about="">
        <dc:format>image/svg+xml</dc:format>
        <dc:type
           rdf:resource="http://purl.org/dc/dcmitype/StillImage" />
        <dc:title></dc:title>
      </cc:Work>
    </rdf:RDF>
  </metadata>
  <g
     inkscape:label="Base"
     inkscape:groupmode="layer"
     id="layer1"
     transform="translate(0,-250.69792)"
     style="display:inline"
     sodipodi:insensitive="true" />
  <g
     inkscape:groupmode="layer"
     id="layer2"
     inkscape:label="Dibujo"
     style="display:inline"
     transform="translate(0,-169.59792)">
    <path
       style="fill:#000000;stroke-width:0.04671876"
       d="m 6.2036378,206.64182 c 0.045456,-0.0118 0.1085258,-0.0112 0.1401564,9.4e-4 0.031632,0.0128 -0.00557,0.0225 -0.082647,0.0216 -0.077086,-8.2e-4 -0.1029652,-0.0114 -0.057509,-0.0232 z m 8.5603212,-0.0823 c -0.179865,-0.0652 -0.32907,-0.11856 -0.331562,-0.11867 -0.03805,-9.3e-4 -0.205703,-0.18945 -0.205703,-0.23034 0,-0.0307 -0.01846,-0.0443 -0.04102,-0.0302 -0.0575,0.0356 -0.255384,-0.2791 -0.348291,-0.55374 -0.138977,-0.41088 -0.06656,-1.03902 0.141859,-1.23037 0.04859,-0.0446 0.05763,-0.0601 0.02008,-0.0345 -0.05819,0.0399 -0.05987,0.031 -0.01153,-0.0598 0.03137,-0.0588 0.07975,-0.0921 0.108305,-0.0743 0.03014,0.0187 0.03844,0.0104 0.01995,-0.0193 -0.03654,-0.0591 0.339451,-0.43889 0.398423,-0.40244 0.02158,0.0133 0.03924,0.004 0.03924,-0.0198 0,-0.0241 0.03679,-0.0546 0.08176,-0.0676 0.04497,-0.0129 0.123804,-0.0375 0.175196,-0.0548 0.05139,-0.0173 0.01714,0.0113 -0.0761,0.063 -0.09326,0.0519 -0.222307,0.1571 -0.286797,0.23374 -0.06449,0.0767 -0.133476,0.12475 -0.153301,0.10689 -0.01982,-0.0177 -0.0221,-0.008 -0.0049,0.0217 0.04308,0.0753 -0.01505,0.20889 -0.07486,0.17193 -0.02697,-0.0166 -0.03542,-0.008 -0.01876,0.0188 0.01664,0.0268 -0.0042,0.13003 -0.04618,0.22914 -0.102718,0.24205 -0.102509,0.90269 3.7e-4,1.1779 0.04185,0.11195 0.06234,0.22756 0.04555,0.25695 -0.0168,0.0294 -0.01443,0.0388 0.0054,0.0212 0.01967,-0.0177 0.102036,0.0559 0.183006,0.16351 0.08725,0.116 0.251747,0.24954 0.40385,0.32787 0.232125,0.11954 0.291603,0.13028 0.622879,0.11259 0.415986,-0.0221 0.377965,0.0455 -0.04737,0.0845 -0.21744,0.0199 -0.337911,9.4e-4 -0.599191,-0.0936 z m -8.9349606,0.0198 c -0.057814,-0.0232 -0.1051167,-0.0633 -0.1051167,-0.0889 0,-0.0257 -0.028965,-0.0357 -0.064364,-0.022 -0.154074,0.0591 -0.4940594,-0.55313 -0.4342206,-0.78194 0.012442,-0.0476 0.00357,-0.0984 -0.019707,-0.1127 -0.023286,-0.0144 -0.042332,-0.42015 -0.042332,-0.90172 0,-0.57225 -0.017728,-0.89328 -0.051177,-0.92673 -0.037091,-0.0372 0.021214,-0.052 0.211828,-0.0543 0.2363818,-0.003 0.2557504,0.004 0.1913341,0.0686 -0.06021,0.0602 -0.071672,0.2414 -0.071672,1.13298 0,0.96324 0.0085,1.07797 0.091925,1.24163 0.050558,0.0991 0.080531,0.19873 0.066605,0.22127 -0.013925,0.0225 -0.00798,0.0356 0.013195,0.0291 0.021182,-0.006 0.1222298,0.0455 0.2245517,0.11564 0.1873528,0.12848 0.1833925,0.1575 -0.010846,0.0794 z m 5.1614066,-0.0945 c -0.07122,-0.0885 -0.216063,-0.24748 -0.321875,-0.35334 -0.125783,-0.12583 -0.179542,-0.21324 -0.155283,-0.25249 0.02506,-0.0404 0.01858,-0.0486 -0.01995,-0.0247 -0.06489,0.0401 -0.197698,-0.11229 -0.156264,-0.17937 0.01454,-0.0235 0.0063,-0.0304 -0.01832,-0.0151 -0.04994,0.0309 -0.4208701,-0.3826 -0.4006771,-0.44664 0.0071,-0.0224 -0.0078,-0.028 -0.03299,-0.0123 -0.0252,0.0154 -0.08004,-0.0238 -0.1218568,-0.0877 -0.041824,-0.0637 -0.1715434,-0.21155 -0.2882789,-0.32829 -0.1708825,-0.17089 -0.2015472,-0.22515 -0.1573446,-0.27839 0.042137,-0.0506 0.041833,-0.0743 -0.00135,-0.10102 -0.034362,-0.0212 -0.044027,-0.015 -0.024865,0.016 0.017237,0.028 0.01241,0.0624 -0.010689,0.0768 -0.023132,0.0144 -0.1281125,-0.0675 -0.2332742,-0.18142 -0.1694784,-0.18386 -0.1970005,-0.19839 -0.2422178,-0.12789 -0.043082,0.0673 -0.047245,0.062 -0.026768,-0.0335 0.018587,-0.0867 -0.017507,-0.1547 -0.1548042,-0.292 L 8.444543,203.68424 h 0.1720358 c 0.1936666,0 0.2885592,0.0679 0.2527413,0.18087 -0.017632,0.0557 -0.012579,0.0601 0.018767,0.0166 0.033383,-0.0465 0.061253,-0.0393 0.1257799,0.0321 0.045591,0.0504 0.069985,0.1125 0.054198,0.13804 -0.015786,0.0255 -0.00404,0.0616 0.026002,0.0802 0.036837,0.0229 0.042655,0.0123 0.017834,-0.0319 -0.020275,-0.0362 0.072359,0.0446 0.2058475,0.17953 0.1432405,0.14467 0.2290262,0.2673 0.2093089,0.29922 -0.019172,0.031 -0.013077,0.0415 0.01431,0.0245 0.026248,-0.0163 0.1398692,0.0776 0.2524925,0.2083 0.112623,0.13078 0.2621631,0.29786 0.3323141,0.37127 0.07016,0.0733 0.1209,0.16039 0.112774,0.19328 -0.0081,0.0329 -0.0055,0.0426 0.006,0.0214 0.0114,-0.0211 0.07039,0.008 0.131059,0.0651 0.06068,0.0571 0.09891,0.12214 0.08493,0.14473 -0.01397,0.0226 -0.0081,0.0357 0.01312,0.029 0.02119,-0.006 0.151935,0.10847 0.290562,0.25579 0.138628,0.14736 0.270026,0.26791 0.291994,0.26791 0.02196,0 0.03994,-0.49544 0.03994,-1.10096 0,-1.06111 -0.02097,-1.24839 -0.149214,-1.33245 -0.02298,-0.0151 0.03359,-0.0302 0.125711,-0.0336 0.12189,-0.004 0.157438,0.009 0.130542,0.0507 -0.02032,0.0313 -0.04747,0.69707 -0.06032,1.47932 l -0.02336,1.42228 z m -0.03402,-0.29893 c 0,-0.036 -0.139046,-0.0651 -0.158783,-0.033 -0.0119,0.0192 0.01897,0.0381 0.06858,0.0417 0.04962,0.003 0.09021,-1.6e-4 0.09021,-0.009 z m -0.186875,-0.16562 c 0,-0.0256 -0.0092,-0.0467 -0.02061,-0.0467 -0.01133,0 -0.0336,0.021 -0.04948,0.0467 -0.01588,0.0257 -0.0066,0.0468 0.02061,0.0468 0.02721,0 0.04948,-0.021 0.04948,-0.0468 z m -0.280313,-0.28031 c 0,-0.0256 -0.0092,-0.0467 -0.02061,-0.0467 -0.01133,0 -0.0336,0.021 -0.04948,0.0467 -0.01588,0.0257 -0.0067,0.0467 0.02061,0.0467 0.02721,0 0.04948,-0.021 0.04948,-0.0467 z m -0.8662904,-0.93115 c 0.014782,-0.0239 0.00899,-0.0547 -0.012816,-0.068 -0.021838,-0.0135 -0.039693,0.006 -0.039693,0.0434 0,0.0787 0.014729,0.0857 0.052508,0.0246 z m -8.3938649,1.6436 c 0.049478,-0.0706 0.079717,-0.15766 0.0672,-0.19338 -0.01388,-0.0396 -0.00217,-0.0521 0.030022,-0.0322 0.029029,0.0178 0.052779,0.0722 0.052779,0.12054 0,0.0484 0.021022,0.10102 0.046718,0.11679 0.097951,0.0605 0.040159,0.11681 -0.1199793,0.11681 H 1.1390821 Z m 2.3704729,0.0163 c 0.062407,-0.0954 0.068884,-0.21748 0.042696,-0.8059 -0.016969,-0.38148 -0.036414,-0.91437 -0.04319,-1.18416 -0.00678,-0.2698 -0.027756,-0.52734 -0.046615,-0.57231 -0.062731,-0.14954 0.00692,-0.22192 0.2135481,-0.22192 0.165894,0 0.1857462,0.0104 0.1367714,0.0691 -0.043968,0.053 -0.049531,0.35987 -0.023919,1.31982 0.031612,1.18495 0.056754,1.38841 0.1818809,1.47197 0.028271,0.019 -0.080478,0.0348 -0.241664,0.035 l -0.2930699,8.2e-4 z m 3.6193711,-0.11742 c 0,-0.12635 -0.02106,-0.23672 -0.046799,-0.24531 -0.031255,-0.0104 -0.031255,-0.0697 0,-0.17878 0.073495,-0.25627 0.059919,-1.95957 -0.016789,-2.10658 l -0.063015,-0.12076 0.2599478,-0.0104 c 0.2521318,-0.0104 0.2575473,-0.008 0.1800993,0.0778 -0.071221,0.0787 -0.079849,0.22625 -0.079849,1.36563 0,1.12309 0.00933,1.28775 0.077319,1.36285 0.073726,0.0814 0.068301,0.0854 -0.1167969,0.0854 h -0.194121 z m 1.4689925,0.12586 c 0.039999,-0.0571 0.075149,-0.17799 0.078095,-0.26863 l 0.0054,-0.16479 0.03866,0.18687 c 0.064505,0.31183 0.056201,0.3504 -0.075407,0.3504 -0.1141021,0 -0.1161926,-0.004 -0.046715,-0.10382 z m 3.6275918,0.0159 c 0.08816,-0.0719 0.09286,-0.13867 0.09708,-1.37979 0.0042,-1.21101 -0.0017,-1.3087 -0.08073,-1.36652 -0.07431,-0.0544 -0.04804,-0.0622 0.205921,-0.0622 0.24665,0 0.28189,0.0104 0.230845,0.065 -0.03313,0.0359 -0.07075,0.0588 -0.08359,0.0511 -0.01285,-0.008 -0.01285,0.58838 0,1.32471 0.01285,0.73631 0.01693,1.36224 0.0091,1.39093 -0.008,0.0294 -0.114206,0.0521 -0.242757,0.0521 -0.217469,0 -0.224009,-0.003 -0.135825,-0.0755 z m 0.416228,0.0385 c 0,-0.0272 0.02102,-0.0365 0.04672,-0.0206 0.0257,0.0159 0.04672,0.0382 0.04672,0.0495 0,0.0113 -0.02102,0.0206 -0.04672,0.0206 -0.02569,0 -0.04672,-0.0222 -0.04672,-0.0495 z m 4.447786,-0.0322 c 0.07573,-0.0875 0.195808,-0.4023 0.140459,-0.36817 -0.01824,0.0112 -0.0297,-0.49693 -0.02547,-1.12928 0.0074,-1.10914 0.0043,-1.15272 -0.08891,-1.23355 -0.09448,-0.082 -0.09012,-0.0838 0.196569,-0.0838 0.254344,0 0.285534,0.009 0.235449,0.0695 -0.03175,0.0383 -0.07112,0.0612 -0.08748,0.0511 -0.01637,-0.0104 -0.01923,0.584 -0.0064,1.32033 0.01285,0.73632 0.01584,1.36504 0.0067,1.39718 -0.01024,0.0357 -0.09921,0.0585 -0.229154,0.0585 -0.198148,0 -0.207708,-0.006 -0.141773,-0.0817 z m 0.410965,0.0365 c 0,-0.0248 0.03154,-0.0332 0.07007,-0.0183 0.03855,0.0147 0.07008,0.0351 0.07008,0.0453 0,0.0104 -0.03154,0.0183 -0.07008,0.0183 -0.03856,0 -0.07007,-0.0204 -0.07007,-0.0453 z m 1.16623,-0.0798 c 0.08414,-0.10701 0.08926,-0.19417 0.08082,-1.37648 -0.0085,-1.18991 -0.0142,-1.26606 -0.09969,-1.32858 -0.08153,-0.0597 -0.06031,-0.0658 0.210234,-0.06 0.165507,0.003 0.258875,0.0147 0.207484,0.0249 -0.09121,0.0182 -0.09314,0.0507 -0.08033,1.35807 0.01091,1.11904 0.02478,1.35227 0.08403,1.41773 0.06562,0.0724 0.04989,0.0783 -0.210732,0.0783 h -0.281647 z m 2.370351,0.0882 c 0.03082,-0.0195 0.09868,-0.12966 0.15081,-0.24457 0.101744,-0.22431 0.123745,-0.20875 0.05312,0.0375 -0.02404,0.0838 -0.02624,0.14163 -0.0047,0.12843 0.02137,-0.0131 0.05087,0.008 0.06561,0.0458 0.02084,0.0542 -0.01183,0.0696 -0.146941,0.0691 -0.09783,-3.4e-4 -0.149247,-0.0164 -0.117696,-0.0364 z m 1.890576,-0.0515 c 0.04516,-0.0723 0.02809,-0.16862 -0.09311,-0.52559 -0.08162,-0.24038 -0.148368,-0.47385 -0.148333,-0.51881 4.7e-5,-0.0724 -0.05986,-0.0829 -0.525522,-0.0916 l -0.525586,-0.0104 0.506598,-0.0149 c 0.388229,-0.0116 0.496541,-0.0284 0.463553,-0.0719 -0.08499,-0.11207 -0.205485,-0.4995 -0.172155,-0.55343 0.01993,-0.0322 0.01398,-0.0427 -0.01441,-0.025 -0.05488,0.0339 -0.163524,-0.33422 -0.119596,-0.40532 0.01532,-0.0247 0.0035,-0.03 -0.02608,-0.0117 -0.02967,0.0183 -0.05394,0.0104 -0.05394,-0.0185 0,-0.0284 -0.04214,-0.13896 -0.09365,-0.24558 -0.104053,-0.21537 -0.08531,-0.36227 0.04623,-0.36227 0.05915,0 0.109341,0.0627 0.159022,0.19856 0.12813,0.35044 0.268377,0.75223 0.354702,1.01614 0.215276,0.65815 0.56707,1.56384 0.637786,1.64198 0.07544,0.0833 0.06845,0.0867 -0.186215,0.0867 -0.248011,0 -0.261126,-0.006 -0.209298,-0.0886 z m 1.46492,-0.0373 c 0.09897,-0.18975 0.10031,-2.45278 0.0016,-2.64206 l -0.06686,-0.12819 0.252404,0.006 c 0.246367,0.006 0.250767,0.008 0.183956,0.10349 -0.09917,0.14158 -0.1012,2.49031 -0.0023,2.62587 0.05287,0.0724 0.144466,0.0963 0.455507,0.11859 l 0.389327,0.0279 -0.455023,0.002 c -0.250263,9.4e-4 -0.444388,-0.0153 -0.431387,-0.0364 0.01299,-0.021 0.0018,-0.0518 -0.025,-0.0683 -0.02676,-0.0165 -0.04287,-0.002 -0.03581,0.0319 0.0085,0.0408 -0.04664,0.0668 -0.161009,0.0763 l -0.173847,0.0145 0.06844,-0.13121 z m 1.283706,0.084 c 0,-0.0474 0.142295,-0.11184 0.174879,-0.0794 0.01176,0.0117 0.0075,0.0438 -0.0094,0.0712 -0.03728,0.0603 -0.165437,0.0666 -0.165437,0.008 z m 2.635924,-0.0151 c 0.04097,-0.0229 0.09512,-0.029 0.120317,-0.0134 0.0252,0.0156 0.03494,0 0.02167,-0.0346 -0.01327,-0.0348 0.02755,-0.10791 0.09076,-0.16284 l 0.114908,-0.0999 -0.0037,0.13032 c -0.002,0.0717 0.01143,0.15482 0.02992,0.18476 0.02416,0.039 -0.03419,0.052 -0.207371,0.0459 -0.169077,-0.006 -0.218774,-0.021 -0.166507,-0.0502 z m 1.740686,-0.0183 c 0.01372,-0.0358 0.04426,-0.0651 0.06786,-0.0651 0.0236,0 0.01,-0.0636 -0.03026,-0.14152 -0.04026,-0.0779 -0.05856,-0.16519 -0.0407,-0.1941 0.01982,-0.0321 0.01148,-0.0396 -0.02144,-0.0192 -0.03197,0.0198 -0.05394,0.003 -0.05394,-0.0395 0,-0.0401 -0.01795,-0.0728 -0.03986,-0.0728 -0.02193,0 -0.140755,-0.15242 -0.264065,-0.33871 -0.123312,-0.1863 -0.242024,-0.34573 -0.263808,-0.3543 -0.02178,-0.009 -0.03961,-0.0382 -0.03961,-0.0658 0,-0.0276 -0.05172,-0.11792 -0.114953,-0.2008 -0.06323,-0.0829 -0.121037,-0.17772 -0.128475,-0.21076 -0.0074,-0.033 -0.05108,-0.0993 -0.09699,-0.14739 -0.0459,-0.0481 -0.0723,-0.10543 -0.05867,-0.12747 0.01364,-0.022 -0.0058,-0.0519 -0.04303,-0.0662 -0.09785,-0.0376 -0.314659,-0.39818 -0.276503,-0.45992 0.01878,-0.0304 0.01124,-0.0393 -0.0181,-0.021 -0.0439,0.0271 -0.244384,-0.19368 -0.244384,-0.26917 0,-0.0153 0.130344,-0.0278 0.289655,-0.0278 0.225288,0 0.277198,0.0124 0.233594,0.056 -0.128579,0.12859 -0.03621,0.34953 0.383218,0.91662 0.0631,0.0853 0.107193,0.19418 0.098,0.24197 -0.01218,0.0632 0.0067,0.0823 0.06922,0.0703 0.06031,-0.0116 0.09642,0.0207 0.121137,0.10846 0.01937,0.0688 0.03125,0.14232 0.0264,0.1635 -0.0047,0.0211 0.01167,0.0259 0.03672,0.0105 0.0595,-0.0368 0.157712,0.14753 0.115241,0.21625 -0.01961,0.0318 -0.01193,0.0401 0.01914,0.0209 0.0292,-0.018 0.08788,0.0248 0.134219,0.0979 0.04528,0.0714 0.162816,0.24075 0.261179,0.37618 0.09836,0.13542 0.164105,0.27007 0.146092,0.2992 -0.01891,0.0307 -0.01204,0.0401 0.01629,0.0227 0.02697,-0.0166 0.06105,9.4e-4 0.07573,0.0392 0.01467,0.0383 0.09571,0.11173 0.18009,0.16327 l 0.153406,0.0939 -0.358663,-0.006 c -0.285821,-0.004 -0.353595,-0.0182 -0.333711,-0.0702 z m -1.180382,-2.30684 c -0.03025,-0.0303 -0.04605,-0.0146 -0.04605,0.046 0,0.0605 0.0158,0.0763 0.04605,0.046 0.03026,-0.0303 0.03026,-0.0619 0,-0.0922 z m 2.81485,2.2411 c 0.112121,-0.11928 0.135001,-0.12825 0.149144,-0.0585 0.0092,0.0455 0.03804,0.10881 0.06412,0.1409 0.03653,0.0451 0.0023,0.0585 -0.149144,0.0585 h -0.196557 z m 1.791614,0.0748 c 0.07478,-0.0748 0.05496,-0.19255 -0.114279,-0.67877 -0.08819,-0.25334 -0.146641,-0.47432 -0.129901,-0.49107 0.01675,-0.0167 -0.0091,-0.0152 -0.05756,0.003 -0.05845,0.0224 -0.07739,0.0165 -0.05639,-0.0174 0.01738,-0.0282 0.0071,-0.1052 -0.02311,-0.17128 -0.04596,-0.10081 -0.04066,-0.13696 0.03321,-0.22541 0.04836,-0.0579 0.05799,-0.079 0.02143,-0.0469 -0.07704,0.0676 -0.15915,0.0784 -0.12045,0.0159 0.01447,-0.0234 -0.0033,-0.10224 -0.03938,-0.1752 -0.143349,-0.28942 -0.215282,-0.49151 -0.189689,-0.53292 0.01478,-0.0239 0.0046,-0.0436 -0.02258,-0.0436 -0.02721,0 -0.04948,-0.0395 -0.04948,-0.0878 0,-0.0483 -0.03154,-0.11391 -0.07006,-0.1459 -0.07446,-0.0618 -0.09869,-0.16335 -0.02863,-0.12005 0.0228,0.014 0.03857,-0.0112 0.03504,-0.0557 -0.0042,-0.0521 0.02696,-0.0812 0.08703,-0.0812 0.06032,0 0.09114,0.029 0.08696,0.0817 -0.0035,0.045 0.0093,0.0818 0.0287,0.0818 0.06195,0 0.191648,0.40338 0.157937,0.49123 -0.0192,0.0501 -0.01406,0.0732 0.01256,0.0569 0.03991,-0.0247 0.187129,0.35893 0.618712,1.61201 0.06846,0.19879 0.160938,0.40401 0.205487,0.45603 0.04454,0.052 0.08101,0.10519 0.08101,0.11815 0,0.0129 -0.115331,0.0187 -0.256291,0.0128 -0.168408,-0.006 -0.240499,-0.0266 -0.210236,-0.0568 z m 1.409755,-0.0241 c 0.0311,-0.0499 0.06813,-0.0834 0.08226,-0.0748 0.01414,0.009 0.02569,-0.57928 0.02569,-1.30669 0,-0.72741 -0.0134,-1.31428 -0.02975,-1.30418 -0.01635,0.0104 -0.05573,-0.0129 -0.08748,-0.0512 -0.05014,-0.0604 -0.01861,-0.0691 0.239981,-0.0659 0.163741,0.002 0.270074,0.0147 0.236295,0.0283 -0.129195,0.0516 -0.154855,0.29143 -0.150393,1.40514 0.0047,1.21386 0.02453,1.33385 0.23024,1.40465 0.09371,0.0322 0.0383,0.0435 -0.240842,0.0485 -0.347788,0.006 -0.360261,0.003 -0.306,-0.0839 z m 1.02587,0.0478 c 0.209864,-0.0187 0.346213,-0.0576 0.420468,-0.11989 0.06044,-0.0508 0.08361,-0.0622 0.05148,-0.0257 -0.07336,0.0835 -0.07628,0.15781 -0.0045,0.11342 0.03343,-0.0207 0.04126,-0.0128 0.0206,0.0206 -0.02146,0.0349 -0.169767,0.0513 -0.416007,0.0467 l -0.382672,-0.008 0.310581,-0.0277 z m 1.254496,-0.0653 c 0.06424,-0.0577 0.123374,-0.14282 0.131413,-0.18926 0.008,-0.0465 0.03355,-0.12998 0.05667,-0.18566 0.02893,-0.0696 0.03292,-0.0357 0.0128,0.10903 -0.01609,0.11562 -0.06262,0.23547 -0.103385,0.2663 -0.06326,0.0478 -0.05871,0.0521 0.03098,0.0295 0.06206,-0.0156 0.105122,-0.006 0.105122,0.0257 0,0.0294 -0.07647,0.0515 -0.175196,0.0507 l -0.175195,-9.4e-4 z m 1.812506,0.072 c 0.08752,-0.0292 0.06694,-0.21398 -0.06197,-0.5565 -0.06501,-0.17272 -0.107722,-0.3414 -0.09491,-0.3748 0.01282,-0.0335 0.0055,-0.0608 -0.0165,-0.0608 -0.0219,0 -0.0508,-0.0421 -0.06424,-0.0934 -0.02233,-0.0854 -0.0681,-0.0943 -0.531034,-0.10328 l -0.506601,-0.0104 0.478868,-0.0151 c 0.263377,-0.008 0.478867,-0.0212 0.478867,-0.0288 0,-0.0386 -0.297563,-0.90618 -0.335724,-0.97884 -0.03013,-0.0574 -0.02623,-0.10678 0.01206,-0.15292 0.04526,-0.0546 0.04357,-0.0636 -0.0085,-0.045 -0.04069,0.0145 -0.09375,-0.0384 -0.141857,-0.14112 -0.07991,-0.17081 -0.06771,-0.3476 0.02389,-0.34636 0.100138,9.4e-4 0.18227,0.0813 0.145156,0.14144 -0.02126,0.0344 -0.01767,0.0475 0.0086,0.0312 0.05606,-0.0348 0.215713,0.4673 0.172572,0.54263 -0.01726,0.0302 -0.01381,0.0387 0.0076,0.0193 0.02149,-0.0194 0.06759,0.0436 0.102444,0.14016 0.18002,0.49879 0.2026,0.57825 0.176356,0.62071 -0.01567,0.0255 8.6e-4,0.0574 0.03675,0.0711 0.03588,0.0137 0.06754,0.0504 0.07033,0.0814 0.0092,0.10203 0.343645,1.03529 0.391845,1.09337 0.02594,0.0312 0.0316,0.082 0.01256,0.1128 -0.02111,0.034 -0.01482,0.0438 0.01611,0.0246 0.02789,-0.0173 0.06352,-0.0105 0.07917,0.0147 0.01759,0.0284 -0.07388,0.0432 -0.239891,0.0388 -0.147588,-0.003 -0.243032,-0.0155 -0.212099,-0.0257 z m 1.478945,-0.0553 c 0.0579,-0.0639 0.07033,-0.29279 0.07381,-1.3591 0.004,-1.23092 3.53e-4,-1.28523 -0.0898,-1.35827 -0.08923,-0.0722 -0.07935,-0.0762 0.195713,-0.077 0.159331,-4.1e-4 0.251888,0.009 0.205686,0.0211 -0.07706,0.0203 -0.08285,0.0816 -0.07006,0.74238 0.0076,0.3962 0.0033,0.72027 -0.0094,0.72019 -0.01284,-9e-5 -0.01284,0.28546 0,0.63455 0.02078,0.56468 0.03363,0.64221 0.116453,0.70264 0.08476,0.0619 0.06694,0.0673 -0.199443,0.0592 -0.268422,-0.008 -0.286795,-0.0151 -0.222902,-0.0858 z m 2.401568,0.002 c 0.05737,-0.0432 0.135392,-0.16196 0.173374,-0.26376 l 0.06906,-0.18509 -0.02882,0.20017 c -0.01671,0.11603 -0.0082,0.22513 0.02042,0.25952 0.03841,0.0463 0.0065,0.0603 -0.144548,0.0635 -0.191575,0.004 -0.192601,0.003 -0.08948,-0.0742 z m 1.856216,-0.04 c 0.03145,-0.16047 -0.233182,-0.99278 -0.341637,-1.07453 -0.04262,-0.0321 -0.05516,-0.0585 -0.02788,-0.0585 0.02777,0 -0.01164,-0.1697 -0.08946,-0.38543 -0.07649,-0.212 -0.181478,-0.52209 -0.233307,-0.6891 -0.05183,-0.16701 -0.124843,-0.32824 -0.162249,-0.35824 -0.0531,-0.0427 -0.0566,-0.076 -0.01597,-0.15183 0.06074,-0.11351 0.261443,-0.13846 0.218748,-0.0271 -0.0148,0.0386 -0.0091,0.0702 0.01253,0.0702 0.03399,0 0.101023,0.22443 0.0927,0.31035 -0.0016,0.0164 0.01753,0.0424 0.04242,0.0582 0.0249,0.0158 0.08817,0.16523 0.140587,0.33225 0.08393,0.26744 0.269004,0.79162 0.577351,1.63516 0.05165,0.14132 0.09658,0.2922 0.09983,0.33528 0.0033,0.043 0.01816,0.0707 0.03316,0.0614 0.01499,-0.009 0.05778,0.002 0.09511,0.0262 0.04587,0.0291 -0.01877,0.0431 -0.199619,0.0437 -0.266864,8.3e-4 -0.267409,3.5e-4 -0.242287,-0.12776 z m -28.989251,0.0648 c 0.01069,-0.009 0.07203,-0.0421 0.136263,-0.0726 0.110128,-0.0524 0.111614,-0.0514 0.02611,0.0172 -0.07443,0.0596 -0.226486,0.11173 -0.162373,0.0557 z m -13.4299398,-0.2448 c -0.05713,-0.16768 -0.06219,-0.2355 -0.021252,-0.28482 0.040665,-0.0491 0.039905,-0.0784 -0.00311,-0.12117 -0.044533,-0.0441 -0.050106,-0.0387 -0.025723,0.0254 0.017129,0.0451 0.010722,0.0817 -0.01425,0.0817 -0.024952,0 -0.085017,-0.0998 -0.1334767,-0.2217 -0.048457,-0.12192 -0.096779,-0.24282 -0.1073815,-0.26862 -0.010588,-0.0259 0.020932,-0.0161 0.070079,0.0217 0.078193,0.0601 0.077279,0.0543 -0.00731,-0.0468 -0.1686802,-0.20133 -0.5114441,-1.11597 -0.473129,-1.2625 0.015998,-0.0612 0.00217,-0.0764 -0.050945,-0.056 -0.054337,0.0208 -0.065023,0.008 -0.041965,-0.0527 0.018408,-0.0479 0.012237,-0.069 -0.015257,-0.052 -0.025403,0.0156 -0.047661,9.4e-4 -0.049468,-0.0326 -0.0018,-0.0336 -0.02135,-0.0191 -0.043435,0.0322 -0.033837,0.0787 -0.040669,0.0699 -0.043434,-0.0559 -0.00217,-0.0987 -0.03844,-0.17381 -0.1071171,-0.2219 -0.09979,-0.0698 -0.094571,-0.0726 0.1340856,-0.0726 h 0.2379167 l 0.062132,0.22191 c 0.034173,0.12206 0.059715,0.23244 0.056764,0.24527 -0.00295,0.0128 0.01229,0.0446 0.033874,0.0706 0.021583,0.026 0.084915,0.17316 0.1407375,0.32702 0.055821,0.15386 0.1835372,0.48341 0.2838138,0.7323 0.2018799,0.50109 0.2076608,0.52355 0.1239222,0.48112 -0.032119,-0.0164 -0.026608,-9.4e-4 0.012252,0.0322 0.038856,0.0339 0.096758,0.12085 0.1286756,0.19298 0.031914,0.0721 0.078308,0.11857 0.1030947,0.10328 0.042739,-0.0265 -0.096222,0.3225 -0.1497637,0.37605 -0.013949,0.0138 -0.059094,-0.0737 -0.1003374,-0.19473 z m 4.4560418,0.19737 c 0,-0.0104 0.03679,-0.0466 0.081758,-0.0817 0.074099,-0.058 0.075752,-0.0565 0.017637,0.0177 -0.061031,0.0779 -0.099396,0.10265 -0.099396,0.0642 z M 1.3431571,205.9266 c 0,-0.0899 0.00961,-0.12673 0.021367,-0.0817 0.011761,0.0451 0.011761,0.11856 0,0.16351 -0.011761,0.045 -0.021367,0.008 -0.021367,-0.0817 z m 7.4365596,-0.67743 c -4.73e-5,-0.43681 0.00697,-0.6218 0.015606,-0.41107 0.00867,0.21072 0.00867,0.56812 9.33e-5,0.7942 -0.00856,0.22611 -0.015651,0.0536 -0.015707,-0.38313 z m 34.4166053,0.72414 c -0.0013,-0.0386 0.01782,-0.1016 0.04272,-0.14015 0.05519,-0.0854 0.05519,-0.0116 0,0.1168 -0.02649,0.0615 -0.04102,0.0695 -0.04272,0.0234 z m -14.299939,-0.0176 c 0,-0.0105 0.03679,-0.0466 0.08175,-0.0819 0.0741,-0.058 0.07576,-0.0565 0.01765,0.0176 -0.06104,0.0779 -0.09939,0.10267 -0.09939,0.0642 z m 3.109801,-0.0895 c 0.01755,-0.0461 0.04367,-0.072 0.05804,-0.0576 0.01438,0.0145 2.9e-5,0.052 -0.03189,0.0838 -0.04615,0.0458 -0.0515,0.0404 -0.02614,-0.0262 z m 0.06708,-0.17041 c 0,-0.0241 0.02078,-0.0568 0.04619,-0.0724 0.0265,-0.0164 0.03432,0.002 0.01837,0.0439 -0.03106,0.0808 -0.06455,0.0958 -0.06455,0.0285 z m -2.943283,-0.036 c 0,-0.0269 0.03679,-0.0777 0.08175,-0.11291 0.07562,-0.0593 0.07662,-0.0573 0.01322,0.0293 -0.03769,0.0514 -0.07448,0.10213 -0.08175,0.11289 -0.0073,0.0113 -0.01322,-0.002 -0.01322,-0.0294 z m 8.506504,-0.1097 c -0.002,-0.04 0.029,-0.11364 0.06896,-0.16352 0.07149,-0.0893 0.07197,-0.0893 0.02967,0.003 -0.02364,0.0514 -0.05467,0.12497 -0.06897,0.16353 -0.02245,0.0605 -0.0265,0.0602 -0.02967,-0.003 z m -5.469784,-0.13281 c 0,-0.0485 0.08886,-0.11876 0.115193,-0.0911 0.0086,0.009 -0.01387,0.0435 -0.04982,0.0767 -0.03595,0.0331 -0.06538,0.0396 -0.06538,0.0145 z m 11.213217,0.009 c 0.0013,-0.0699 0.0811,-0.16356 0.105336,-0.12362 0.01336,0.022 -0.005,0.0673 -0.04087,0.10021 -0.03584,0.0331 -0.06485,0.0437 -0.06446,0.0234 z m -21.770941,-0.0953 c 3.76e-4,-0.0192 0.02049,-0.0664 0.04465,-0.10453 0.03453,-0.0546 0.04226,-0.0472 0.03606,0.0349 -0.0071,0.0926 -0.08252,0.15766 -0.08072,0.0695 z m 10.944564,8.2e-4 c 0.122828,-0.0104 0.31204,-0.009 0.420469,3.5e-4 0.10843,0.0104 0.008,0.0177 -0.223323,0.0176 -0.231259,-1.4e-4 -0.319975,-0.008 -0.197146,-0.0178 z m 11.212502,0 c 0.122827,-0.0104 0.312037,-0.009 0.420469,3.5e-4 0.10843,0.0104 0.0079,0.0177 -0.223324,0.0176 -0.231257,-1.4e-4 -0.319974,-0.008 -0.197145,-0.0178 z M 1.3935171,205.01588 c 1.764e-4,-0.15417 0.00899,-0.2116 0.019383,-0.12764 0.010402,0.084 0.010182,0.21011 -5.328e-4,0.2803 -0.010666,0.0703 -0.019165,9.4e-4 -0.018903,-0.15266 z m 39.7557499,0.17784 c 0.04545,-0.0118 0.108521,-0.0113 0.140155,9.4e-4 0.03162,0.0128 -0.0056,0.0225 -0.08264,0.0217 -0.07709,-8.2e-4 -0.102957,-0.0115 -0.05751,-0.0233 z m -21.328541,-0.0909 c 0.08321,-0.044 0.163468,-0.11831 0.178344,-0.16518 0.01488,-0.0469 0.04599,-0.0852 0.06915,-0.0852 0.02315,0 0.02869,-0.035 0.01227,-0.0778 -0.01872,-0.0487 -0.01126,-0.0663 0.01992,-0.047 0.02739,0.017 0.06224,-9.3e-4 0.07749,-0.0415 0.01524,-0.0397 0.0094,-0.061 -0.01291,-0.0472 -0.02235,0.0138 -0.05412,-0.10599 -0.07065,-0.26621 -0.01652,-0.16021 -0.03403,-0.3266 -0.03893,-0.36972 -0.0048,-0.043 -0.03069,-0.0748 -0.0573,-0.0702 -0.02661,0.004 -0.04261,-0.0194 -0.03555,-0.0535 0.0072,-0.0339 -0.0037,-0.0516 -0.02387,-0.0392 -0.02018,0.0124 -0.07728,-0.006 -0.126883,-0.0431 -0.08893,-0.065 -0.0889,-0.066 0.0013,-0.066 0.140532,0 0.45185,0.22939 0.420871,0.31012 -0.01476,0.0385 -0.006,0.056 0.02,0.0399 0.02545,-0.0158 0.06658,0.0248 0.0914,0.0901 0.05292,0.13919 0.04382,0.54101 -0.01224,0.54101 -0.02121,0 -0.02869,0.0161 -0.01661,0.0356 0.0382,0.0618 -0.09992,0.20971 -0.160725,0.17212 -0.03906,-0.0241 -0.04499,-0.0158 -0.0188,0.0267 0.02753,0.0446 0.01712,0.0538 -0.03712,0.0329 -0.05058,-0.0194 -0.06755,-0.009 -0.05159,0.033 0.01444,0.0375 -0.02147,0.0732 -0.09148,0.0908 -0.06338,0.0159 -0.153989,0.0402 -0.201342,0.0541 -0.04736,0.0138 -0.01801,-0.0112 0.0652,-0.0548 z m 21.596285,0.0587 c 0,-0.0104 0.04204,-0.029 0.09343,-0.0423 0.05139,-0.0134 0.09343,-0.006 0.09343,0.0179 0,0.0233 -0.04204,0.0423 -0.09343,0.0423 -0.05139,0 -0.09343,-0.008 -0.09343,-0.0179 z m -19.711317,-0.0757 c -0.0013,-0.0385 0.01781,-0.10161 0.04272,-0.14016 0.05518,-0.0854 0.05518,-0.0116 0,0.11681 -0.02649,0.0617 -0.04102,0.0695 -0.04272,0.0234 z m 19.9728,0.008 c -0.02938,-0.0476 0.126435,-0.16446 0.16619,-0.1247 0.0107,0.0112 0.02302,-0.0164 0.02732,-0.0601 0.0043,-0.0438 0.02177,-0.18746 0.03879,-0.31936 0.03832,-0.29688 -0.03211,-0.52638 -0.217034,-0.70716 -0.111401,-0.10891 -0.122282,-0.13551 -0.05575,-0.13628 0.123053,-9.4e-4 0.411606,0.24293 0.495357,0.41943 0.100937,0.21271 0.06376,0.5188 -0.08702,0.7165 -0.109005,0.14291 -0.145069,0.16611 -0.238693,0.15358 -0.01639,-0.002 -0.04531,0.021 -0.06424,0.0518 -0.02342,0.038 -0.04418,0.04 -0.06492,0.007 z m 1.846521,-0.10081 c -6.97e-4,-0.0386 0.02743,-0.13316 0.06273,-0.21025 0.08262,-0.18044 0.08383,-0.0965 0.0018,0.1168 -0.03464,0.0899 -0.06362,0.13198 -0.06442,0.0934 z m -11.167756,-0.16787 c 0.0023,-0.0546 0.01331,-0.0655 0.02823,-0.0283 0.0135,0.0337 0.01183,0.074 -0.0037,0.0896 -0.01553,0.0156 -0.02657,-0.012 -0.02453,-0.0613 z m 5.510558,0.004 c 0,-0.0257 0.02037,-0.0782 0.04528,-0.1168 0.02492,-0.0386 0.04529,-0.0491 0.04529,-0.0234 0,0.0257 -0.02038,0.0784 -0.04529,0.1168 -0.0249,0.0386 -0.04528,0.0491 -0.04528,0.0234 z m -21.647942,-0.82765 c -0.04718,-0.0695 -0.152308,-0.16891 -0.233594,-0.22082 l -0.147789,-0.0944 0.227369,0.009 c 0.248067,0.0104 0.277234,0.0417 0.254789,0.27606 l -0.01496,0.15628 z m 14.118639,-0.0441 c 0.02713,-0.0713 0.02682,-0.14444 -8.2e-4,-0.19383 -0.03879,-0.0693 -0.01912,-0.0788 0.156498,-0.0763 0.161933,0.002 0.181295,0.0112 0.09988,0.0437 -0.05556,0.0223 -0.114184,0.0822 -0.130286,0.13297 -0.0161,0.0507 -0.06067,0.11828 -0.09904,0.15012 -0.0601,0.0499 -0.06372,0.0421 -0.02621,-0.0566 z m -10.981516,-0.25833 c 0.03373,-0.0135 0.07402,-0.0118 0.08953,0.003 0.01553,0.0155 -0.01207,0.0266 -0.06132,0.0245 -0.05442,-0.002 -0.06549,-0.0133 -0.02822,-0.0283 z m 0.186874,0 c 0.03373,-0.0135 0.07402,-0.0118 0.08955,0.003 0.01553,0.0155 -0.01207,0.0266 -0.06132,0.0245 -0.05442,-0.002 -0.06549,-0.0133 -0.02823,-0.0283 z m 21.864378,0 c 0.03373,-0.0135 0.07402,-0.0118 0.08954,0.003 0.01552,0.0155 -0.01206,0.0266 -0.06132,0.0245 -0.05442,-0.002 -0.06549,-0.0133 -0.02823,-0.0283 z m -26.235502,-0.14035 c 0.04497,-0.0118 0.11855,-0.0118 0.163516,0 0.04497,0.0117 0.0083,0.0214 -0.08175,0.0214 -0.08994,0 -0.126725,-0.0104 -0.08175,-0.0214 z m 0.75918,-2.51448 c -2.569532,-0.032 -5.617929,-0.071 -6.7742176,-0.0869 -1.1562898,-0.0159 -3.4951473,-0.0428 -5.1974629,-0.0601 -2.5364447,-0.0257 -3.09511678,-0.0426 -3.09511678,-0.0938 0,-0.0483 0.1141416,-0.0624 0.50222648,-0.0623 0.276225,8e-5 1.8161924,-0.0221 3.422149,-0.0494 10.0600648,-0.17081 16.6602618,-0.26288 16.6926838,-0.23283 0.02059,0.0191 0.0311,0.1692 0.02334,0.33361 l -0.01409,0.29892 -0.443827,0.006 c -0.244106,0.003 -2.546173,-0.0207 -5.115705,-0.0527 z m 9.133518,-0.27982 v -0.30366 l 0.875977,-5e-5 c 0.75795,-5e-5 3.333585,0.0372 7.766992,0.11229 0.655231,0.0112 3.556466,0.057 6.447189,0.10181 2.890722,0.045 5.264619,0.0887 5.275326,0.0974 0.01069,0.009 0.0068,0.0284 -0.0089,0.0439 -0.03528,0.0354 -16.242781,0.24799 -19.106889,0.25077 l -1.249728,9.3e-4 z"
       id="path842"
       inkscape:connector-curvature="0"
       sodipodi:nodetypes="cccccccsccccccccssccccccccccccccccccscccscccscccccccccccccccccccccccccscccccccccccccccccsscccccccccccssssssssssccscccccscsccccccsccccccsccccccscscsccccscccccsccscsccsssssccccscsccsccscssscccccccscccccccccccccccccccccscscccscccccccccccccccccccccccccsccccccccscccssccsccsscccssccccccccccccccccccccsscccccscccccccccccccsscccscsccccscccccsccccccccccccccccccccccccsccccccsccccsccccccccccccccccccccccccccccccccccccccccccscccccscccccccccccccccccccsccccccccccccscccscccccccccccccccccccccccccccccsccscscccsccsscccccccccccsccscccccccccccccccccccccccccccccccsccccscccccscccscccccccccssssscccccccccccscccccccccccccccssscssccccccccccccccccccccccccccccccccscccscsccccccccccccsccccc" />
    <path
       style="display:inline;fill:#000000;stroke-width:0.09395864"
       d="m 6.7270059,192.05546 c 0,-0.0516 0.107055,-0.0939 0.2379151,-0.0939 0.1308601,0 0.3951101,-0.0699 0.5872411,-0.15546 0.1921378,-0.0855 0.3841805,-0.14776 0.4267808,-0.13871 0.042609,0.009 0.052475,-0.0235 0.021949,-0.0729 -0.030526,-0.0493 -0.012446,-0.11631 0.040007,-0.1489 0.052521,-0.0326 0.095492,-0.14369 0.095492,-0.24694 0,-0.10341 0.037857,-0.16451 0.08411,-0.136 0.046253,0.0285 0.1096799,-0.0136 0.1409297,-0.0962 0.077706,-0.20252 0.069039,-0.29738 -0.015161,-0.16496 -0.037971,0.0597 -0.057272,-2.03318 -0.042881,-4.65093 0.022719,-4.13679 0.00656,-4.8272 -0.1241394,-5.27635 -0.082662,-0.28424 -0.1563396,-0.58877 -0.1637165,-0.67675 -0.00747,-0.088 -0.028987,-0.14437 -0.04795,-0.12536 -0.019008,0.0181 -0.1777009,-0.0254 -0.3526841,-0.0984 -0.1749854,-0.0731 -0.446377,-0.13305 -0.6030674,-0.13305 -0.1567017,0 -0.2848939,-0.0457 -0.2848939,-0.10183 0,-0.0722 1.1843663,-0.0894 4.0637107,-0.0593 4.473449,0.0468 4.9164,0.0932 6.075311,0.63419 0.902717,0.42143 1.096595,0.56019 0.936999,0.67059 -0.09398,0.0649 -0.0744,0.0745 0.07081,0.0337 0.152674,-0.0428 0.326779,0.0593 0.72818,0.42607 0.290143,0.26518 0.527533,0.53371 0.527533,0.59671 0,0.0629 0.09662,0.19868 0.214744,0.30127 0.118098,0.10274 0.372832,0.5067 0.56607,0.89776 0.821275,1.66215 0.82173,4.03714 0.0011,5.62791 -0.388724,0.75351 -1.029348,1.52593 -1.189537,1.43426 -0.06001,-0.0344 -0.07777,-0.0278 -0.03946,0.0136 0.09529,0.10522 -0.113979,0.3418 -0.235756,0.26654 -0.05381,-0.0333 -0.07022,-0.0158 -0.03643,0.0389 0.03376,0.0545 -0.07388,0.18487 -0.239193,0.28964 -0.238701,0.15116 -0.340221,0.16926 -0.493171,0.0878 -0.163942,-0.0874 -0.175755,-0.0821 -0.07945,0.0346 0.093,0.11292 0.05956,0.16564 -0.187929,0.29623 -0.505706,0.26701 -1.674183,0.60925 -2.447276,0.71675 -0.952447,0.13238 -8.2362169,0.13962 -8.2362169,0.009 z m 8.1139131,-0.78419 c 0.199289,-0.0849 0.406651,-0.12672 0.460823,-0.0932 0.05417,0.0335 0.07214,0.0181 0.03994,-0.0339 -0.06895,-0.11156 0.378388,-0.33789 0.508678,-0.25735 0.04908,0.0303 0.07764,0.0181 0.06343,-0.0251 -0.01426,-0.0441 0.143306,-0.25441 0.350016,-0.46719 0.206711,-0.2127 0.385177,-0.42978 0.396593,-0.48223 0.01131,-0.0525 0.127692,-0.25292 0.258387,-0.44551 0.130701,-0.19257 0.23763,-0.40769 0.23763,-0.478 0,-0.0704 0.04096,-0.12785 0.09101,-0.12785 0.05005,0 0.06402,-0.0704 0.031,-0.15636 -0.03738,-0.0975 -0.02263,-0.13329 0.03933,-0.095 0.05462,0.0337 0.09538,0.009 0.09056,-0.055 -0.0129,-0.1713 0.138101,-0.85307 0.213069,-0.96207 0.144867,-0.21067 0.112938,-2.16189 -0.04689,-2.86573 -0.08802,-0.38758 -0.165233,-0.79579 -0.171591,-0.90713 -0.0063,-0.11133 -0.03876,-0.18555 -0.07203,-0.16518 -0.03324,0.0204 -0.089,-0.0787 -0.123868,-0.2204 -0.03489,-0.14166 -0.174216,-0.44802 -0.309625,-0.68055 -0.135408,-0.23256 -0.22883,-0.42284 -0.207615,-0.42284 0.02127,0 -0.192772,-0.22716 -0.475559,-0.50482 -0.282778,-0.27765 -0.450722,-0.4723 -0.373206,-0.43251 0.107191,0.055 0.115745,0.0448 0.03578,-0.0419 -0.05784,-0.0627 -0.184693,-0.12604 -0.281876,-0.14007 -0.09719,-0.0136 -0.176705,-0.0713 -0.176705,-0.12649 0,-0.0554 -0.03849,-0.136 -0.08554,-0.17899 -0.04969,-0.0455 -0.0572,-0.0292 -0.01788,0.0392 0.09398,0.16337 0.04467,0.15002 -0.429102,-0.11473 -0.597942,-0.3342 -1.657859,-0.53378 -2.708989,-0.51013 -0.490935,0.0113 -0.968779,0.0584 -1.061877,0.10522 -0.160231,0.0806 -0.168445,0.35839 -0.153941,5.19901 0.0084,2.81267 0.0467,5.09454 0.08506,5.07082 0.03836,-0.0238 0.116038,0.0584 0.172586,0.18261 0.06526,0.14324 0.06942,0.2426 0.01131,0.27188 -0.0503,0.0254 -0.03756,0.0351 0.02833,0.0226 0.06589,-0.0136 0.288924,0.055 0.49563,0.15229 0.32169,0.15139 0.545042,0.1713 1.55032,0.13939 0.806814,-0.0258 1.287907,-0.0855 1.536808,-0.19143 z m 7.953014,0.78729 c 0,-0.0534 0.138033,-0.0971 0.306757,-0.0971 0.168718,0 0.460047,-0.0821 0.647397,-0.18261 0.187363,-0.10047 0.373201,-0.15319 0.412998,-0.11744 0.0398,0.036 0.04471,0.0158 0.01086,-0.0423 -0.03378,-0.0591 0.0017,-0.25858 0.0789,-0.4433 0.208136,-0.49814 0.209494,-10.04794 0.0015,-10.54576 -0.07635,-0.18261 -0.129208,-0.3674 -0.117464,-0.41039 0.01177,-0.043 -0.0095,-0.0842 -0.04741,-0.0916 -0.03781,-0.007 -0.216169,-0.0751 -0.396307,-0.15026 -0.180145,-0.0753 -0.466315,-0.13758 -0.635926,-0.13826 -0.235017,-8.3e-4 -0.274854,-0.0233 -0.167451,-0.0937 0.195781,-0.12807 5.756984,-0.11631 5.677705,0.0113 -0.03245,0.0525 -0.07814,0.0763 -0.101534,0.053 -0.0234,-0.0233 -0.235487,0.0158 -0.471309,0.0864 -0.235824,0.071 -0.463212,0.10771 -0.50531,0.0817 -0.04209,-0.026 -0.107145,0.002 -0.144528,0.0627 -0.04492,0.0726 -0.02704,0.0846 0.05268,0.0355 0.06637,-0.041 0.102371,-0.0371 0.08004,0.009 -0.0224,0.0459 -0.122963,0.25267 -0.223591,0.45938 -0.174216,0.35787 -0.182951,0.61167 -0.182951,5.30867 0,2.71306 0.02265,5.04444 0.05035,5.18082 0.0277,0.13645 0.101308,0.30942 0.163604,0.38448 0.0623,0.0751 0.08194,0.1679 0.04363,0.20615 -0.03831,0.0382 -0.0063,0.0557 0.07128,0.0382 0.0775,-0.0181 0.133394,0.0136 0.124162,0.0661 -0.0093,0.0534 0.05419,0.10319 0.14093,0.1102 0.441215,0.036 0.956364,0.15478 0.956364,0.22063 0,0.041 -1.310723,0.079 -2.912717,0.0846 -1.948009,0.007 -2.912717,-0.0226 -2.912717,-0.0867 z m 1.315423,-0.19098 c 0,-0.0516 -0.04478,-0.0939 -0.0995,-0.0939 -0.05472,0 -0.07338,0.0423 -0.04143,0.0939 0.03193,0.0516 0.07671,0.0939 0.0995,0.0939 0.02279,0 0.04143,-0.0423 0.04143,-0.0939 z m 6.483145,0.18781 c 0,-0.0516 0.128936,-0.0939 0.286543,-0.0939 0.157607,0 0.405924,-0.0618 0.551839,-0.13713 0.145908,-0.0756 0.291798,-0.11766 0.324191,-0.0939 0.03238,0.0238 0.03813,0.0158 0.01267,-0.0181 -0.02539,-0.0339 -0.0032,-0.11359 0.04947,-0.17695 0.293977,-0.35422 0.325541,-1.02984 0.278565,-5.96238 -0.04455,-4.67743 -0.05646,-4.94852 -0.230081,-5.23551 -0.191934,-0.31728 -0.55417,-0.49597 -1.005403,-0.49597 -0.147311,0 -0.267855,-0.0423 -0.267855,-0.0939 -2e-6,-0.0613 1.531396,-0.0939 4.406276,-0.0939 h 4.406273 l 0.06845,0.77516 c 0.03765,0.42634 0.08115,0.91258 0.09667,1.08053 0.01561,0.1679 -0.0063,0.30537 -0.04861,0.30537 -0.104045,0 -0.20438,-0.27804 -0.138689,-0.38432 0.02903,-0.0471 0.0129,-0.0855 -0.03575,-0.0855 -0.0842,0 -0.218591,-0.29559 -0.242609,-0.53364 -0.0061,-0.0609 -0.04915,-0.1455 -0.09551,-0.18782 -0.04899,-0.0448 -0.05286,-0.0228 -0.0093,0.0525 0.04132,0.0713 0.03752,0.11133 -0.0084,0.0892 -0.940394,-0.45558 -0.88206,-0.44501 -2.530716,-0.45827 l -1.593062,-0.0136 v 2.56909 2.56907 l 1.456359,-0.002 c 1.330103,-0.002 1.484293,-0.0204 1.778575,-0.2066 0.177226,-0.11223 0.357963,-0.1817 0.401652,-0.15478 0.04369,0.0269 0.07187,0.0136 0.06259,-0.0283 -0.0093,-0.0425 0.05311,-0.23466 0.138599,-0.42677 0.08549,-0.19212 0.155457,-0.43526 0.155457,-0.54028 0,-0.10499 0.03888,-0.19098 0.08637,-0.19098 0.129253,0 0.133779,3.44544 0.0045,3.52528 -0.05861,0.0362 -0.09271,0.009 -0.07852,-0.0629 0.0138,-0.0697 -0.07651,-0.31716 -0.200623,-0.54969 -0.124117,-0.23255 -0.216079,-0.45768 -0.204358,-0.50027 0.01177,-0.0425 -0.02104,-0.0511 -0.07302,-0.0181 -0.05189,0.0321 -0.190351,0.005 -0.307692,-0.0609 -0.319545,-0.17877 -3.155115,-0.26073 -3.219183,-0.093 -0.02632,0.0688 -0.04784,1.15239 -0.04784,2.40795 0,1.71619 0.03195,2.36148 0.128733,2.59969 0.07081,0.17424 0.116265,0.37072 0.101014,0.43661 -0.01516,0.0659 -0.0066,0.0776 0.01923,0.0258 0.02697,-0.0538 0.157856,-0.0113 0.307384,0.0987 0.143238,0.1059 0.436036,0.2161 0.650675,0.24489 0.214653,0.0287 0.390259,0.0892 0.390259,0.13396 0,0.0448 -1.310723,0.0815 -2.912717,0.0815 -1.879176,0 -2.912722,-0.0333 -2.912722,-0.0939 z"
       id="path842-4"
       inkscape:connector-curvature="0"
       sodipodi:nodetypes="csccscsscccccccsscccccscccccccccccccccsccccccsscccccccccsccccscccccccccccccccscccccccccccsccccccsccscccscccsscsscsccccccscscccscsccccccccccccssscccccccscacccsscc" />
  </g>
</svg>
