<?xml version="1.0" encoding="UTF-8" standalone="no"?>
<!-- Created with Inkscape (http://www.inkscape.org/) -->

<svg
   xmlns:dc="http://purl.org/dc/elements/1.1/"
   xmlns:cc="http://creativecommons.org/ns#"
   xmlns:rdf="http://www.w3.org/1999/02/22-rdf-syntax-ns#"
   xmlns:svg="http://www.w3.org/2000/svg"
   xmlns="http://www.w3.org/2000/svg"
   xmlns:sodipodi="http://sodipodi.sourceforge.net/DTD/sodipodi-0.dtd"
   xmlns:inkscape="http://www.inkscape.org/namespaces/inkscape"
   width="605"
   height="475"
   viewBox="0 0 160.07292 125.67708"
   version="1.1"
   id="svg8"
   inkscape:version="0.92.3 (2405546, 2018-03-11)"
   sodipodi:docname="Escenario.svg">
  <defs
     id="defs2" />
  <sodipodi:namedview
     id="base"
     pagecolor="#ffffff"
     bordercolor="#666666"
     borderopacity="1.0"
     inkscape:pageopacity="0.0"
     inkscape:pageshadow="2"
     inkscape:zoom="0.7"
     inkscape:cx="170.21938"
     inkscape:cy="41.774104"
     inkscape:document-units="mm"
     inkscape:current-layer="layer2"
     showgrid="false"
     inkscape:window-width="1920"
     inkscape:window-height="1027"
     inkscape:window-x="-8"
     inkscape:window-y="-8"
     inkscape:window-maximized="1"
     units="px" />
  <metadata
     id="metadata5">
    <rdf:RDF>
      <cc:Work
         rdf:about="">
        <dc:format>image/svg+xml</dc:format>
        <dc:type
           rdf:resource="http://purl.org/dc/dcmitype/StillImage" />
        <dc:title></dc:title>
      </cc:Work>
    </rdf:RDF>
  </metadata>
  <g
     inkscape:label="Base"
     inkscape:groupmode="layer"
     id="layer1"
     transform="translate(0,-171.32292)"
     style="display:inline"
     sodipodi:insensitive="true" />
  <g
     inkscape:groupmode="layer"
     id="layer2"
     inkscape:label="Dibujo"
     style="display:inline"
     transform="translate(0,-90.22292)">
    <path
       style="display:inline;opacity:1;fill:#5aa02c;fill-opacity:1;stroke:none;stroke-width:0.26458333;stroke-miterlimit:4;stroke-dasharray:none"
       d="m 162.95952,119.51453 c 2.1e-4,-15.12782 -36.63908,-27.3913 -81.835867,-27.39124 -45.196545,3e-5 -81.835502,12.26349 -81.835288,27.39124 V 235.16631 H 161.75322 Z"
       id="path1158-2-4"
       inkscape:connector-curvature="0"
       sodipodi:nodetypes="csc"
       inkscape:export-xdpi="212.74001"
       inkscape:export-ydpi="212.74001" />
    <path
       style="display:inline;opacity:1;fill:#ffffff;fill-opacity:1;stroke:#000000;stroke-width:0.26458333;stroke-miterlimit:4;stroke-dasharray:none;stroke-dashoffset:0"
       d="m 83.229827,219.55783 a 10.187083,10.187083 0 0 1 3.820285,0.7498 10.187083,10.187083 0 0 1 3.360905,-0.58267 10.187083,10.187083 0 0 1 9.57491,6.74555 10.187083,10.187083 0 0 1 1.113303,-0.0658 10.187083,10.187083 0 0 1 10.18682,10.18729 10.187083,10.187083 0 0 1 -10.18682,10.18681 10.187083,10.187083 0 0 1 -3.879643,-0.77673 10.187083,10.187083 0 0 1 -7.47664,3.28188 10.187083,10.187083 0 0 1 -8.457054,-4.51528 10.187083,10.187083 0 0 1 -4.735859,1.17539 10.187083,10.187083 0 0 1 -10.187273,-10.18727 10.187083,10.187083 0 0 1 7.412254,-9.79229 10.187083,10.187083 0 0 1 9.454812,-6.4067 z"
       id="path1202-1-5-6-6"
       inkscape:connector-curvature="0"
       inkscape:export-xdpi="212.74001"
       inkscape:export-ydpi="212.74001" />
    <path
       style="display:inline;opacity:1;fill:#ffffff;fill-opacity:1;stroke:#000000;stroke-width:0.26458332;stroke-miterlimit:4;stroke-dasharray:none;stroke-dashoffset:0"
       d="m 14.667454,211.38746 a 11.198781,11.198781 0 0 0 -4.199678,0.82428 11.198781,11.198781 0 0 0 -3.694671,-0.64053 11.198781,11.198781 0 0 0 -10.5258204,7.41547 11.198781,11.198781 0 0 0 -1.22388,-0.0723 11.198781,11.198781 0 0 0 -11.1984896,11.199 11.198781,11.198781 0 0 0 11.1984896,11.19849 11.198781,11.198781 0 0 0 4.2649604,-0.85389 11.198781,11.198781 0 0 0 8.21916,3.60783 11.198781,11.198781 0 0 0 9.296921,-4.96372 11.198781,11.198781 0 0 0 5.206191,1.29213 11.198781,11.198781 0 0 0 11.198997,-11.19899 11.198781,11.198781 0 0 0 -8.148367,-10.76478 11.198781,11.198781 0 0 0 -10.393813,-7.04297 z"
       id="path1202-1-2-37-1-5-8"
       inkscape:connector-curvature="0"
       inkscape:export-xdpi="212.74001"
       inkscape:export-ydpi="212.74001" />
    <path
       style="display:inline;opacity:1;fill:#2b1100;fill-opacity:1;stroke:#000000;stroke-width:0.26458333;stroke-miterlimit:4;stroke-dasharray:none;stroke-dashoffset:0"
       d="m 14.370922,151.49658 c 0.312526,-2.66194 2.129003,-5.2668 2.129003,-5.2668 0,0 1.816459,2.60486 2.128984,5.2668 0.312543,2.66193 0,10.56455 0,10.56455 0,0 -1.389542,0.62327 -2.128984,0.62327 -0.73946,0 -2.129003,-0.62327 -2.129003,-0.62327 0,0 -0.312525,-7.90262 0,-10.56455 z"
       id="rect1310-2-2-7"
       inkscape:connector-curvature="0"
       sodipodi:nodetypes="zczczcz"
       inkscape:export-xdpi="212.74001"
       inkscape:export-ydpi="212.74001" />
    <path
       style="display:inline;opacity:1;fill:#112b00;fill-opacity:1;stroke:#000000;stroke-width:0.26458333;stroke-miterlimit:4;stroke-dasharray:none;stroke-dashoffset:0"
       d="m 13.977788,133.26204 a 3.1935927,3.1935927 0 0 0 -3.175583,2.86085 3.1935927,3.1935927 0 0 0 -0.108439,-0.005 3.1935927,3.1935927 0 0 0 -3.18689,3.00497 3.1935927,3.1935927 0 0 0 -3.004972,3.18691 3.1935927,3.1935927 0 0 0 1.121645,2.42909 3.1935927,3.1935927 0 0 0 -1.121645,2.42551 3.1935927,3.1935927 0 0 0 3.193531,3.19354 3.1935927,3.1935927 0 0 0 1.798279,-0.55821 3.1935927,3.1935927 0 0 0 3.056325,2.27145 3.1935927,3.1935927 0 0 0 1.820933,-0.57421 3.1935927,3.1935927 0 0 0 2.74795,1.57386 3.1935927,3.1935927 0 0 0 3.069852,-2.32393 3.1935927,3.1935927 0 0 0 2.213208,0.89611 3.1935927,3.1935927 0 0 0 3.19353,-3.19352 3.1935927,3.1935927 0 0 0 -0.279924,-1.29779 4.1076372,4.1076372 0 0 0 1.431396,-3.10959 4.1076372,4.1076372 0 0 0 -1.540437,-3.20209 3.1935927,3.1935927 0 0 0 1.245608,-2.52793 3.1935927,3.1935927 0 0 0 -3.19353,-3.19379 3.1935927,3.1935927 0 0 0 -0.376279,0.0263 3.1935927,3.1935927 0 0 0 -2.907791,-1.88221 3.1935927,3.1935927 0 0 0 -2.997795,2.10389 3.1935927,3.1935927 0 0 0 -2.998905,-2.10389 z"
       id="path1202-1-8-1-2"
       inkscape:connector-curvature="0"
       inkscape:export-xdpi="212.74001"
       inkscape:export-ydpi="212.74001" />
    <path
       style="display:inline;opacity:1;fill:#2b1100;fill-opacity:1;stroke:#000000;stroke-width:0.26458333;stroke-miterlimit:4;stroke-dasharray:none;stroke-dashoffset:0"
       d="m 36.70554,163.36177 c 0.312524,-2.66194 2.129002,-5.2668 2.129002,-5.2668 0,0 1.816459,2.60486 2.128984,5.2668 0.312543,2.66193 0,10.56455 0,10.56455 0,0 -1.389542,0.62327 -2.128984,0.62327 -0.73946,0 -2.129002,-0.62327 -2.129002,-0.62327 0,0 -0.312525,-7.90262 0,-10.56455 z"
       id="rect1310-2-0-49-1"
       inkscape:connector-curvature="0"
       sodipodi:nodetypes="zczczcz"
       inkscape:export-xdpi="212.74001"
       inkscape:export-ydpi="212.74001" />
    <path
       style="display:inline;opacity:1;fill:#112b00;fill-opacity:1;stroke:#000000;stroke-width:0.26458333;stroke-miterlimit:4;stroke-dasharray:none;stroke-dashoffset:0"
       d="m 36.312405,145.12723 a 3.1935927,3.1935927 0 0 0 -3.175565,2.86085 3.1935927,3.1935927 0 0 0 -0.108439,-0.005 3.1935927,3.1935927 0 0 0 -3.186909,3.00497 3.1935927,3.1935927 0 0 0 -3.00497,3.18691 3.1935927,3.1935927 0 0 0 1.121661,2.4291 3.1935927,3.1935927 0 0 0 -1.121661,2.4255 3.1935927,3.1935927 0 0 0 3.19353,3.19354 3.1935927,3.1935927 0 0 0 1.79828,-0.5582 3.1935927,3.1935927 0 0 0 3.056324,2.27145 3.1935927,3.1935927 0 0 0 1.820932,-0.57422 3.1935927,3.1935927 0 0 0 2.747951,1.57386 3.1935927,3.1935927 0 0 0 3.069852,-2.32393 3.1935927,3.1935927 0 0 0 2.213227,0.89611 3.1935927,3.1935927 0 0 0 3.19353,-3.19352 3.1935927,3.1935927 0 0 0 -0.279942,-1.29779 4.1076372,4.1076372 0 0 0 1.431395,-3.10959 4.1076372,4.1076372 0 0 0 -1.540437,-3.20208 3.1935927,3.1935927 0 0 0 1.245609,-2.52794 3.1935927,3.1935927 0 0 0 -3.19353,-3.19379 3.1935927,3.1935927 0 0 0 -0.376279,0.0263 3.1935927,3.1935927 0 0 0 -2.907792,-1.88221 3.1935927,3.1935927 0 0 0 -2.997795,2.1039 3.1935927,3.1935927 0 0 0 -2.998905,-2.1039 z"
       id="path1202-1-8-9-33-9"
       inkscape:connector-curvature="0"
       inkscape:export-xdpi="212.74001"
       inkscape:export-ydpi="212.74001" />
    <path
       style="display:inline;opacity:1;fill:#2b1100;fill-opacity:1;stroke:#000000;stroke-width:0.26458333;stroke-miterlimit:4;stroke-dasharray:none;stroke-dashoffset:0"
       d="m 47.541115,142.14025 c 0.312525,-2.66193 2.128984,-5.26679 2.128984,-5.26679 0,0 1.816477,2.60486 2.129002,5.26679 0.312543,2.66195 0,10.56457 0,10.56457 0,0 -1.389542,0.62326 -2.129002,0.62326 -0.739442,0 -2.128984,-0.62326 -2.128984,-0.62326 0,0 -0.312525,-7.90262 0,-10.56457 z"
       id="rect1310-2-0-6-06-6"
       inkscape:connector-curvature="0"
       sodipodi:nodetypes="zczczcz"
       inkscape:export-xdpi="212.74001"
       inkscape:export-ydpi="212.74001" />
    <path
       style="display:inline;opacity:1;fill:#112b00;fill-opacity:1;stroke:#000000;stroke-width:0.26458333;stroke-miterlimit:4;stroke-dasharray:none;stroke-dashoffset:0"
       d="m 47.14798,123.90571 a 3.1935927,3.1935927 0 0 0 -3.175583,2.86087 3.1935927,3.1935927 0 0 0 -0.108438,-0.005 3.1935927,3.1935927 0 0 0 -3.186892,3.00497 3.1935927,3.1935927 0 0 0 -3.004971,3.1869 3.1935927,3.1935927 0 0 0 1.121643,2.42909 3.1935927,3.1935927 0 0 0 -1.121643,2.42552 3.1935927,3.1935927 0 0 0 3.193531,3.19353 3.1935927,3.1935927 0 0 0 1.79828,-0.5582 3.1935927,3.1935927 0 0 0 3.056324,2.27145 3.1935927,3.1935927 0 0 0 1.820932,-0.57422 3.1935927,3.1935927 0 0 0 2.747951,1.57387 3.1935927,3.1935927 0 0 0 3.069851,-2.32393 3.1935927,3.1935927 0 0 0 2.213209,0.89611 3.1935927,3.1935927 0 0 0 3.19353,-3.19353 3.1935927,3.1935927 0 0 0 -0.279924,-1.29778 4.1076372,4.1076372 0 0 0 1.431395,-3.10959 4.1076372,4.1076372 0 0 0 -1.540437,-3.20209 3.1935927,3.1935927 0 0 0 1.245609,-2.52794 3.1935927,3.1935927 0 0 0 -3.19353,-3.1938 3.1935927,3.1935927 0 0 0 -0.376279,0.0263 3.1935927,3.1935927 0 0 0 -2.907809,-1.88222 3.1935927,3.1935927 0 0 0 -2.997796,2.1039 3.1935927,3.1935927 0 0 0 -2.998886,-2.1039 z"
       id="path1202-1-8-9-3-3-1"
       inkscape:connector-curvature="0"
       inkscape:export-xdpi="212.74001"
       inkscape:export-ydpi="212.74001" />
    <path
       style="display:inline;opacity:1;fill:#2b1100;fill-opacity:1;stroke:#000000;stroke-width:0.26458333;stroke-miterlimit:4;stroke-dasharray:none;stroke-dashoffset:0"
       d="m 74.282907,155.64854 c 0.312524,-2.66194 2.129003,-5.26679 2.129003,-5.26679 0,0 1.816459,2.60485 2.128984,5.26679 0.312543,2.66194 0,10.56457 0,10.56457 0,0 -1.389542,0.62325 -2.128984,0.62325 -0.73946,0 -2.129003,-0.62325 -2.129003,-0.62325 0,0 -0.312525,-7.90263 0,-10.56457 z"
       id="rect1310-2-0-6-7-69-8"
       inkscape:connector-curvature="0"
       sodipodi:nodetypes="zczczcz"
       inkscape:export-xdpi="212.74001"
       inkscape:export-ydpi="212.74001" />
    <path
       style="display:inline;opacity:1;fill:#112b00;fill-opacity:1;stroke:#000000;stroke-width:0.26458333;stroke-miterlimit:4;stroke-dasharray:none;stroke-dashoffset:0"
       d="m 73.889772,137.414 a 3.1935927,3.1935927 0 0 0 -3.175559,2.86086 3.1935927,3.1935927 0 0 0 -0.108438,-0.005 3.1935927,3.1935927 0 0 0 -3.18691,3.00497 3.1935927,3.1935927 0 0 0 -3.00497,3.18691 3.1935927,3.1935927 0 0 0 1.121662,2.42909 3.1935927,3.1935927 0 0 0 -1.121662,2.42552 3.1935927,3.1935927 0 0 0 3.19353,3.19352 3.1935927,3.1935927 0 0 0 1.79828,-0.5582 3.1935927,3.1935927 0 0 0 3.056319,2.27146 3.1935927,3.1935927 0 0 0 1.820932,-0.57422 3.1935927,3.1935927 0 0 0 2.747951,1.57386 3.1935927,3.1935927 0 0 0 3.069852,-2.32394 3.1935927,3.1935927 0 0 0 2.213225,0.89612 3.1935927,3.1935927 0 0 0 3.193513,-3.19353 3.1935927,3.1935927 0 0 0 -0.279924,-1.29779 4.1076372,4.1076372 0 0 0 1.431395,-3.10959 4.1076372,4.1076372 0 0 0 -1.540437,-3.20208 3.1935927,3.1935927 0 0 0 1.245609,-2.52793 3.1935927,3.1935927 0 0 0 -3.193531,-3.1938 3.1935927,3.1935927 0 0 0 -0.376278,0.0263 3.1935927,3.1935927 0 0 0 -2.907791,-1.88223 3.1935927,3.1935927 0 0 0 -2.997795,2.1039 3.1935927,3.1935927 0 0 0 -2.998905,-2.1039 z"
       id="path1202-1-8-9-3-0-2-9"
       inkscape:connector-curvature="0"
       inkscape:export-xdpi="212.74001"
       inkscape:export-ydpi="212.74001" />
    <path
       style="display:inline;opacity:1;fill:#2b1100;fill-opacity:1;stroke:#000000;stroke-width:0.26458333;stroke-miterlimit:4;stroke-dasharray:none;stroke-dashoffset:0"
       d="m 103.68841,149.46122 c 0.31253,-2.66194 2.12901,-5.26679 2.12901,-5.26679 0,0 1.81646,2.60485 2.12898,5.26679 0.31254,2.66195 0,10.56457 0,10.56457 0,0 -1.38954,0.62325 -2.12898,0.62325 -0.73946,0 -2.12901,-0.62325 -2.12901,-0.62325 0,0 -0.31252,-7.90262 0,-10.56457 z"
       id="rect1310-2-0-6-7-6-4-2"
       inkscape:connector-curvature="0"
       sodipodi:nodetypes="zczczcz"
       inkscape:export-xdpi="212.74001"
       inkscape:export-ydpi="212.74001" />
    <path
       style="display:inline;opacity:1;fill:#112b00;fill-opacity:1;stroke:#000000;stroke-width:0.26458333;stroke-miterlimit:4;stroke-dasharray:none;stroke-dashoffset:0"
       d="m 103.29528,131.22668 a 3.1935927,3.1935927 0 0 0 -3.17558,2.86086 3.1935927,3.1935927 0 0 0 -0.10844,-0.005 3.1935927,3.1935927 0 0 0 -3.186894,3.00496 3.1935927,3.1935927 0 0 0 -3.00497,3.18691 3.1935927,3.1935927 0 0 0 1.121643,2.42909 3.1935927,3.1935927 0 0 0 -1.121643,2.42552 3.1935927,3.1935927 0 0 0 3.19353,3.19352 3.1935927,3.1935927 0 0 0 1.79828,-0.55819 3.1935927,3.1935927 0 0 0 3.056324,2.27144 3.1935927,3.1935927 0 0 0 1.82093,-0.57421 3.1935927,3.1935927 0 0 0 2.74795,1.57386 3.1935927,3.1935927 0 0 0 3.06986,-2.32393 3.1935927,3.1935927 0 0 0 2.2132,0.89612 3.1935927,3.1935927 0 0 0 3.19353,-3.19353 3.1935927,3.1935927 0 0 0 -0.27992,-1.29779 4.1076372,4.1076372 0 0 0 1.4314,-3.10959 4.1076372,4.1076372 0 0 0 -1.54044,-3.20208 3.1935927,3.1935927 0 0 0 1.24561,-2.52794 3.1935927,3.1935927 0 0 0 -3.19353,-3.1938 3.1935927,3.1935927 0 0 0 -0.37628,0.0263 3.1935927,3.1935927 0 0 0 -2.90781,-1.88221 3.1935927,3.1935927 0 0 0 -2.9978,2.1039 3.1935927,3.1935927 0 0 0 -2.99888,-2.1039 z"
       id="path1202-1-8-9-3-0-9-25-8"
       inkscape:connector-curvature="0"
       inkscape:export-xdpi="212.74001"
       inkscape:export-ydpi="212.74001" />
    <path
       style="display:inline;opacity:1;fill:#2b1100;fill-opacity:1;stroke:#000000;stroke-width:0.26458333;stroke-miterlimit:4;stroke-dasharray:none;stroke-dashoffset:0"
       d="m 129.25328,166.47599 c 0.31252,-2.66194 2.12898,-5.26679 2.12898,-5.26679 0,0 1.81648,2.60485 2.129,5.26679 0.31255,2.66193 0,10.56456 0,10.56456 0,0 -1.38954,0.62326 -2.129,0.62326 -0.73944,0 -2.12898,-0.62326 -2.12898,-0.62326 0,0 -0.31255,-7.90263 0,-10.56456 z"
       id="rect1310-2-0-6-7-6-3-64-6"
       inkscape:connector-curvature="0"
       sodipodi:nodetypes="zczczcz"
       inkscape:export-xdpi="212.74001"
       inkscape:export-ydpi="212.74001" />
    <path
       style="display:inline;opacity:1;fill:#112b00;fill-opacity:1;stroke:#000000;stroke-width:0.26458333;stroke-miterlimit:4;stroke-dasharray:none;stroke-dashoffset:0"
       d="m 128.86014,148.24145 a 3.1935927,3.1935927 0 0 0 -3.17558,2.86086 3.1935927,3.1935927 0 0 0 -0.10844,-0.005 3.1935927,3.1935927 0 0 0 -3.18689,3.00496 3.1935927,3.1935927 0 0 0 -3.00499,3.18691 3.1935927,3.1935927 0 0 0 1.12166,2.42909 3.1935927,3.1935927 0 0 0 -1.12166,2.42552 3.1935927,3.1935927 0 0 0 3.19353,3.19352 3.1935927,3.1935927 0 0 0 1.7983,-0.55819 3.1935927,3.1935927 0 0 0 3.05632,2.27144 3.1935927,3.1935927 0 0 0 1.82092,-0.57421 3.1935927,3.1935927 0 0 0 2.74797,1.57386 3.1935927,3.1935927 0 0 0 3.06985,-2.32393 3.1935927,3.1935927 0 0 0 2.21321,0.89612 3.1935927,3.1935927 0 0 0 3.19353,-3.19354 3.1935927,3.1935927 0 0 0 -0.27995,-1.29778 4.1076372,4.1076372 0 0 0 1.43142,-3.10959 4.1076372,4.1076372 0 0 0 -1.54046,-3.20208 3.1935927,3.1935927 0 0 0 1.24561,-2.52794 3.1935927,3.1935927 0 0 0 -3.19351,-3.1938 3.1935927,3.1935927 0 0 0 -0.37628,0.0263 3.1935927,3.1935927 0 0 0 -2.90781,-1.88222 3.1935927,3.1935927 0 0 0 -2.99779,2.10391 3.1935927,3.1935927 0 0 0 -2.99891,-2.10391 z"
       id="path1202-1-8-9-3-0-9-2-90-1"
       inkscape:connector-curvature="0"
       inkscape:export-xdpi="212.74001"
       inkscape:export-ydpi="212.74001" />
    <path
       style="display:inline;opacity:1;fill:#2b1100;fill-opacity:1;stroke:#000000;stroke-width:0.26458333;stroke-miterlimit:4;stroke-dasharray:none;stroke-dashoffset:0"
       d="m 149.00222,147.43223 c 0.31252,-2.66194 2.129,-5.26679 2.129,-5.26679 0,0 1.81646,2.60485 2.12899,5.26679 0.31254,2.66194 0,10.56456 0,10.56456 0,0 -1.38955,0.62326 -2.12899,0.62326 -0.73946,0 -2.129,-0.62326 -2.129,-0.62326 0,0 -0.31254,-7.90262 0,-10.56456 z"
       id="rect1310-2-0-6-7-6-3-3-4-9"
       inkscape:connector-curvature="0"
       sodipodi:nodetypes="zczczcz"
       inkscape:export-xdpi="212.74001"
       inkscape:export-ydpi="212.74001" />
    <path
       style="display:inline;opacity:1;fill:#112b00;fill-opacity:1;stroke:#000000;stroke-width:0.26458333;stroke-miterlimit:4;stroke-dasharray:none;stroke-dashoffset:0"
       d="m 148.60908,129.19769 a 3.1935927,3.1935927 0 0 0 -3.17558,2.86085 3.1935927,3.1935927 0 0 0 -0.10844,-0.005 3.1935927,3.1935927 0 0 0 -3.18689,3.00496 3.1935927,3.1935927 0 0 0 -3.00497,3.18691 3.1935927,3.1935927 0 0 0 1.12164,2.4291 3.1935927,3.1935927 0 0 0 -1.12164,2.42551 3.1935927,3.1935927 0 0 0 3.19353,3.19353 3.1935927,3.1935927 0 0 0 1.79828,-0.5582 3.1935927,3.1935927 0 0 0 3.05633,2.27145 3.1935927,3.1935927 0 0 0 1.82093,-0.57421 3.1935927,3.1935927 0 0 0 2.74795,1.57385 3.1935927,3.1935927 0 0 0 3.06985,-2.32393 3.1935927,3.1935927 0 0 0 2.21321,0.89612 3.1935927,3.1935927 0 0 0 3.19353,-3.19353 3.1935927,3.1935927 0 0 0 -0.27993,-1.29779 4.1076372,4.1076372 0 0 0 1.4314,-3.10959 4.1076372,4.1076372 0 0 0 -1.54044,-3.20208 3.1935927,3.1935927 0 0 0 1.24559,-2.52794 3.1935927,3.1935927 0 0 0 -3.19351,-3.19379 3.1935927,3.1935927 0 0 0 -0.37628,0.0263 3.1935927,3.1935927 0 0 0 -2.90779,-1.88221 3.1935927,3.1935927 0 0 0 -2.99781,2.1039 3.1935927,3.1935927 0 0 0 -2.99889,-2.1039 z"
       id="path1202-1-8-9-3-0-9-2-4-62-4"
       inkscape:connector-curvature="0"
       inkscape:export-xdpi="212.74001"
       inkscape:export-ydpi="212.74001" />
    <path
       style="display:inline;opacity:1;fill:#ffffff;fill-opacity:1;stroke:#000000;stroke-width:0.26458333;stroke-miterlimit:4;stroke-dasharray:none;stroke-dashoffset:0"
       d="m 136.71621,200.55586 a 12.013021,12.013021 0 0 0 4.50503,-0.8842 12.013021,12.013021 0 0 0 3.96331,0.6871 12.013021,12.013021 0 0 0 11.29112,-7.95463 12.013021,12.013021 0 0 0 1.31287,0.0776 12.013021,12.013021 0 0 0 12.01271,-12.01326 12.013021,12.013021 0 0 0 -12.01271,-12.0127 12.013021,12.013021 0 0 0 -4.57506,0.91597 12.013021,12.013021 0 0 0 -8.81675,-3.87015 12.013021,12.013021 0 0 0 -9.97289,5.32462 12.013021,12.013021 0 0 0 -5.58472,-1.38607 12.013021,12.013021 0 0 0 -12.01326,12.01324 12.013021,12.013021 0 0 0 8.74083,11.54746 12.013021,12.013021 0 0 0 11.14952,7.55505 z"
       id="path1202-1-2-37-1"
       inkscape:connector-curvature="0"
       inkscape:export-xdpi="212.74001"
       inkscape:export-ydpi="212.74001" />
    <path
       style="display:inline;opacity:1;fill:#ffffff;fill-opacity:1;stroke:#000000;stroke-width:0.26458333;stroke-miterlimit:4;stroke-dasharray:none;stroke-dashoffset:0"
       d="m 28.194255,165.27358 a 13.758272,13.758272 0 0 0 -5.159527,1.01266 13.758272,13.758272 0 0 0 -4.539112,-0.78693 13.758272,13.758272 0 0 0 -12.9314975,9.11028 13.758272,13.758272 0 0 0 -1.5035777,-0.0888 13.758272,13.758272 0 0 0 -13.7579197,13.75853 13.758272,13.758272 0 0 0 13.7579197,13.75791 13.758272,13.758272 0 0 0 5.2397065,-1.04901 13.758272,13.758272 0 0 0 10.0976427,4.43237 13.758272,13.758272 0 0 0 11.421765,-6.09816 13.758272,13.758272 0 0 0 6.396064,1.58743 13.758272,13.758272 0 0 0 13.758529,-13.75853 13.758272,13.758272 0 0 0 -10.010698,-13.22507 13.758272,13.758272 0 0 0 -12.769295,-8.65265 z"
       id="path1202-54-1"
       inkscape:connector-curvature="0"
       inkscape:export-xdpi="212.74001"
       inkscape:export-ydpi="212.74001" />
    <path
       style="display:inline;opacity:1;fill:#ffffff;fill-opacity:1;stroke:#000000;stroke-width:0.26458333;stroke-miterlimit:4;stroke-dasharray:none;stroke-dashoffset:0"
       d="m 9.2407186,132.95362 a 11.462505,11.462505 0 0 1 4.2985864,0.84368 11.462505,11.462505 0 0 1 3.781693,-0.65562 11.462505,11.462505 0 0 1 10.773692,7.59011 11.462505,11.462505 0 0 1 1.252684,-0.074 11.462505,11.462505 0 0 1 11.462212,11.46273 11.462505,11.462505 0 0 1 -11.462212,11.46219 11.462505,11.462505 0 0 1 -4.365385,-0.87397 11.462505,11.462505 0 0 1 -8.412705,3.69277 11.462505,11.462505 0 0 1 -9.5158797,-5.08059 11.462505,11.462505 0 0 1 -5.3287866,1.32255 11.462505,11.462505 0 0 1 -11.4627211,-11.46271 11.462505,11.462505 0 0 1 8.3402683,-11.0183 11.462505,11.462505 0 0 1 10.6385537,-7.20882 z"
       id="path1202-54-1-1"
       inkscape:connector-curvature="0"
       inkscape:export-xdpi="212.74001"
       inkscape:export-ydpi="212.74001" />
    <path
       style="display:inline;opacity:1;fill:#ffffff;fill-opacity:1;stroke:#000000;stroke-width:0.26458333;stroke-miterlimit:4;stroke-dasharray:none;stroke-dashoffset:0"
       d="m 54.931651,162.84029 a 9.6769138,9.6769138 0 0 0 3.628967,-0.71225 9.6769138,9.6769138 0 0 0 3.19259,0.55349 9.6769138,9.6769138 0 0 0 9.0954,-6.40774 9.6769138,9.6769138 0 0 0 1.057545,0.0625 9.6769138,9.6769138 0 0 0 9.676666,-9.67711 9.6769138,9.6769138 0 0 0 -9.676666,-9.67666 9.6769138,9.6769138 0 0 0 -3.685346,0.73784 9.6769138,9.6769138 0 0 0 -7.102214,-3.11753 9.6769138,9.6769138 0 0 0 -8.033522,4.28917 9.6769138,9.6769138 0 0 0 -4.498688,-1.11654 9.6769138,9.6769138 0 0 0 -9.677095,9.6771 9.6769138,9.6769138 0 0 0 7.041048,9.30189 9.6769138,9.6769138 0 0 0 8.981315,6.08586 z"
       id="path1202-1-5-6-9"
       inkscape:connector-curvature="0"
       inkscape:export-xdpi="212.74001"
       inkscape:export-ydpi="212.74001" />
    <path
       style="display:inline;opacity:1;fill:#ffffff;fill-opacity:1;stroke:#000000;stroke-width:0.26458333;stroke-miterlimit:4;stroke-dasharray:none;stroke-dashoffset:0"
       d="m 109.63317,143.44551 a 10.174988,10.174988 0 0 0 -3.81575,0.74892 10.174988,10.174988 0 0 0 -3.35691,-0.58197 10.174988,10.174988 0 0 0 -9.56355,6.73754 10.174988,10.174988 0 0 0 -1.11198,-0.0657 10.174988,10.174988 0 0 0 -10.174724,10.17519 10.174988,10.174988 0 0 0 10.174724,10.17472 10.174988,10.174988 0 0 0 3.87505,-0.77582 10.174988,10.174988 0 0 0 7.46775,3.278 10.174988,10.174988 0 0 0 8.44702,-4.50994 10.174988,10.174988 0 0 0 4.73023,1.174 10.174988,10.174988 0 0 0 10.17519,-10.17518 10.174988,10.174988 0 0 0 -7.40345,-9.78066 10.174988,10.174988 0 0 0 -9.4436,-6.39909 z"
       id="path1202-1-2-2-3-6-5"
       inkscape:connector-curvature="0"
       inkscape:export-xdpi="212.74001"
       inkscape:export-ydpi="212.74001" />
    <path
       style="display:inline;opacity:1;fill:#ffffff;fill-opacity:1;stroke:#000000;stroke-width:0.26458333;stroke-miterlimit:4;stroke-dasharray:none;stroke-dashoffset:0"
       d="m 62.396685,158.43105 a 10.187083,10.187083 0 0 1 3.820285,0.7498 10.187083,10.187083 0 0 1 3.360904,-0.58267 10.187083,10.187083 0 0 1 9.574913,6.74555 10.187083,10.187083 0 0 1 1.113299,-0.0658 10.187083,10.187083 0 0 1 10.186821,10.1873 10.187083,10.187083 0 0 1 -10.186821,10.1868 10.187083,10.187083 0 0 1 -3.87964,-0.77673 10.187083,10.187083 0 0 1 -7.476643,3.28189 10.187083,10.187083 0 0 1 -8.457052,-4.51529 10.187083,10.187083 0 0 1 -4.735859,1.1754 10.187083,10.187083 0 0 1 -10.187273,-10.18728 10.187083,10.187083 0 0 1 7.412254,-9.79229 10.187083,10.187083 0 0 1 9.454812,-6.4067 z"
       id="path1202-1-5-6"
       inkscape:connector-curvature="0"
       inkscape:export-xdpi="212.74001"
       inkscape:export-ydpi="212.74001" />
    <path
       style="display:inline;opacity:1;fill:#ffffff;fill-opacity:1;stroke:#000000;stroke-width:0.26458333;stroke-miterlimit:4;stroke-dasharray:none;stroke-dashoffset:0"
       d="m 104.82761,213.04385 a 13.758265,13.758265 0 0 1 -5.159524,-1.01266 13.758265,13.758265 0 0 1 -4.539108,0.78693 13.758265,13.758265 0 0 1 -12.931493,-9.11028 13.758265,13.758265 0 0 1 -1.503576,0.0888 A 13.758265,13.758265 0 0 1 66.936,190.03811 13.758265,13.758265 0 0 1 80.693909,176.2802 a 13.758265,13.758265 0 0 1 5.239704,1.04904 13.758265,13.758265 0 0 1 10.097636,-4.4324 13.758265,13.758265 0 0 1 11.421761,6.09818 13.758265,13.758265 0 0 1 6.39606,-1.58744 13.758265,13.758265 0 0 1 13.75854,13.75852 13.758265,13.758265 0 0 1 -10.01069,13.22506 13.758265,13.758265 0 0 1 -12.76931,8.65265 z"
       id="path1202-1-2-2-3-6"
       inkscape:connector-curvature="0"
       inkscape:export-xdpi="212.74001"
       inkscape:export-ydpi="212.74001" />
    <path
       style="display:inline;opacity:1;fill:#ffffff;fill-opacity:1;stroke:#000000;stroke-width:0.26458333;stroke-miterlimit:4;stroke-dasharray:none;stroke-dashoffset:0"
       d="m 151.27351,130.8506 a 11.198781,11.198781 0 0 0 -4.19968,0.82428 11.198781,11.198781 0 0 0 -3.69467,-0.64053 11.198781,11.198781 0 0 0 -10.52582,7.41547 11.198781,11.198781 0 0 0 -1.22388,-0.0723 11.198781,11.198781 0 0 0 -11.19849,11.199 11.198781,11.198781 0 0 0 11.19849,11.19849 11.198781,11.198781 0 0 0 4.26496,-0.85389 11.198781,11.198781 0 0 0 8.21916,3.60783 11.198781,11.198781 0 0 0 9.29692,-4.96372 11.198781,11.198781 0 0 0 5.20619,1.29213 11.198781,11.198781 0 0 0 11.199,-11.19899 11.198781,11.198781 0 0 0 -8.14837,-10.76478 11.198781,11.198781 0 0 0 -10.39381,-7.04297 z"
       id="path1202-1-2-37-1-5"
       inkscape:connector-curvature="0"
       inkscape:export-xdpi="212.74001"
       inkscape:export-ydpi="212.74001" />
    <path
       style="display:inline;opacity:1;fill:#ffffff;fill-opacity:1;stroke:#000000;stroke-width:0.26458333;stroke-miterlimit:4;stroke-dasharray:none;stroke-dashoffset:0"
       d="m 62.084685,188.90231 a 15.968996,15.968996 0 0 0 -5.988575,1.17537 15.968996,15.968996 0 0 0 -5.26847,-0.91337 15.968996,15.968996 0 0 0 -15.009376,10.57415 15.968996,15.968996 0 0 0 -1.745176,-0.10307 15.968996,15.968996 0 0 0 -15.968583,15.96931 15.968996,15.968996 0 0 0 15.968583,15.96858 15.968996,15.968996 0 0 0 6.08164,-1.2176 15.968996,15.968996 0 0 0 11.720163,5.14461 15.968996,15.968996 0 0 0 13.257054,-7.07806 15.968996,15.968996 0 0 0 7.423804,1.84252 15.968996,15.968996 0 0 0 15.969316,-15.96929 15.968996,15.968996 0 0 0 -11.619247,-15.35012 15.968996,15.968996 0 0 0 -14.821133,-10.04299 z"
       id="path1202-1-2-2-3-6-4"
       inkscape:connector-curvature="0"
       inkscape:export-xdpi="212.74001"
       inkscape:export-ydpi="212.74001" />
    <path
       style="display:inline;opacity:1;fill:#ffffff;fill-opacity:1;stroke:#000000;stroke-width:0.26458333;stroke-miterlimit:4;stroke-dasharray:none;stroke-dashoffset:0"
       d="m 125.82227,242.43801 a 15.3738,15.3738 0 0 0 5.76536,-1.13155 15.3738,15.3738 0 0 0 5.07209,0.87933 15.3738,15.3738 0 0 0 14.44995,-10.18003 15.3738,15.3738 0 0 0 1.68014,0.0993 15.3738,15.3738 0 0 0 15.37339,-15.37411 15.3738,15.3738 0 0 0 -15.37339,-15.3734 15.3738,15.3738 0 0 0 -5.85495,1.17221 15.3738,15.3738 0 0 0 -11.28335,-4.95284 15.3738,15.3738 0 0 0 -12.76292,6.81424 15.3738,15.3738 0 0 0 -7.14711,-1.77386 15.3738,15.3738 0 0 0 -15.3741,15.3741 15.3738,15.3738 0 0 0 11.18619,14.77799 15.3738,15.3738 0 0 0 14.2687,9.66866 z"
       id="path1202-1-5-6-9-3"
       inkscape:connector-curvature="0"
       inkscape:export-xdpi="212.74001"
       inkscape:export-ydpi="212.74001" />
  </g>
</svg>
