<?xml version="1.0" encoding="UTF-8" standalone="no"?>
<!-- Created with Inkscape (http://www.inkscape.org/) -->

<svg
   xmlns:dc="http://purl.org/dc/elements/1.1/"
   xmlns:cc="http://creativecommons.org/ns#"
   xmlns:rdf="http://www.w3.org/1999/02/22-rdf-syntax-ns#"
   xmlns:svg="http://www.w3.org/2000/svg"
   xmlns="http://www.w3.org/2000/svg"
   xmlns:sodipodi="http://sodipodi.sourceforge.net/DTD/sodipodi-0.dtd"
   xmlns:inkscape="http://www.inkscape.org/namespaces/inkscape"
   width="175"
   height="175"
   viewBox="0 0 46.302083 46.302083"
   version="1.1"
   id="svg8"
   inkscape:version="0.92.3 (2405546, 2018-03-11)"
   sodipodi:docname="ImgList3.svg">
  <defs
     id="defs2" />
  <sodipodi:namedview
     id="base"
     pagecolor="#ffffff"
     bordercolor="#666666"
     borderopacity="1.0"
     inkscape:pageopacity="0.0"
     inkscape:pageshadow="2"
     inkscape:zoom="2.8"
     inkscape:cx="115.22129"
     inkscape:cy="40.808487"
     inkscape:document-units="mm"
     inkscape:current-layer="layer2"
     showgrid="false"
     inkscape:window-width="1448"
     inkscape:window-height="1018"
     inkscape:window-x="463"
     inkscape:window-y="0"
     inkscape:window-maximized="0"
     units="px" />
  <metadata
     id="metadata5">
    <rdf:RDF>
      <cc:Work
         rdf:about="">
        <dc:format>image/svg+xml</dc:format>
        <dc:type
           rdf:resource="http://purl.org/dc/dcmitype/StillImage" />
        <dc:title></dc:title>
      </cc:Work>
    </rdf:RDF>
  </metadata>
  <g
     inkscape:label="Base"
     inkscape:groupmode="layer"
     id="layer1"
     transform="translate(0,-250.69792)"
     style="display:inline"
     sodipodi:insensitive="true" />
  <g
     inkscape:groupmode="layer"
     id="layer2"
     inkscape:label="Dibujo"
     style="display:inline"
     transform="translate(0,-169.59792)">
    <path
       style="color:#000000;font-style:normal;font-variant:normal;font-weight:normal;font-stretch:normal;font-size:medium;line-height:normal;font-family:sans-serif;font-variant-ligatures:normal;font-variant-position:normal;font-variant-caps:normal;font-variant-numeric:normal;font-variant-alternates:normal;font-feature-settings:normal;text-indent:0;text-align:start;text-decoration:none;text-decoration-line:none;text-decoration-style:solid;text-decoration-color:#000000;letter-spacing:normal;word-spacing:normal;text-transform:none;writing-mode:lr-tb;direction:ltr;text-orientation:mixed;dominant-baseline:auto;baseline-shift:baseline;text-anchor:start;white-space:normal;shape-padding:0;clip-rule:nonzero;display:inline;overflow:visible;visibility:visible;opacity:1;isolation:auto;mix-blend-mode:normal;color-interpolation:sRGB;color-interpolation-filters:linearRGB;solid-color:#000000;solid-opacity:1;vector-effect:none;fill:#000000;fill-opacity:1;fill-rule:nonzero;stroke:none;stroke-width:0.54294568;stroke-linecap:butt;stroke-linejoin:miter;stroke-miterlimit:4;stroke-dasharray:1.08589121, 3.25767362;stroke-dashoffset:0;stroke-opacity:1;color-rendering:auto;image-rendering:auto;shape-rendering:auto;text-rendering:auto;enable-background:accumulate"
       d="m 55.939146,188.87842 0.799191,0.0137 0.0032,-0.73829 -0.799193,-0.0117 z m -3.195717,-0.7207 0.0042,0.73828 0.798136,-0.0117 -0.0032,-0.73828 z m 6.387203,0.83008 0.377397,0.0176 h 0.0032 l 0.414399,0.0312 0.01691,-0.73633 -0.417569,-0.0332 h -0.0021 -0.0021 l -0.379512,-0.0176 z m -8.835525,-0.7207 h -0.0021 -0.0021 l -0.747394,0.0586 0.01586,0.73633 0.745281,-0.0566 h 0.0032 l 0.04652,-0.004 -0.0095,-0.73633 z m 12.021727,0.9707 0.797079,0.0879 0.02326,-0.73633 -0.79708,-0.0879 z m -15.969065,-0.61328 0.02431,0.73633 0.797078,-0.0859 -0.02326,-0.73633 z m 19.154208,1.00781 0.651198,0.0918 h 0.0032 l 0.138485,0.0234 0.03702,-0.73437 -0.141657,-0.0234 h -0.0011 l -0.0022,-0.002 -0.655419,-0.0918 z m -21.873156,-0.64453 -0.0021,0.002 h -0.0011 l -0.470425,0.0801 0.037,0.73633 0.467254,-0.082 h 0.0032 l 0.322427,-0.0449 -0.03066,-0.73632 z m 25.047726,1.18359 0.793909,0.16407 0.04438,-0.73243 -0.793914,-0.16406 z m -28.704353,-0.50195 0.0444,0.73437 0.793907,-0.16406 -0.0444,-0.73437 z m 31.873639,1.20508 0.576146,0.13672 0.0043,0.002 0.207197,0.0566 0.0592,-0.73047 -0.21143,-0.0566 -0.0022,-0.002 h -0.0022 l -0.580276,-0.13868 z m -34.50696,-0.59375 h -0.0021 l -0.0021,0.002 -0.538082,0.14648 0.05814,0.73047 0.53491,-0.14648 0.0042,-0.002 0.248426,-0.0586 -0.05074,-0.73242 z m 37.659338,1.46093 0.78862,0.24415 0.06555,-0.72657 -0.787569,-0.24609 z m -41.361422,-0.38281 0.0666,0.72852 0.787565,-0.24414 -0.0666,-0.72852 z m 44.503222,1.42774 0.09726,0.0332 v 0.002 l 0.680793,0.26368 0.0814,-0.72266 -0.679743,-0.26367 -0.0022,-0.002 h -0.0011 l -0.10254,-0.0352 z m -47.647139,-0.29688 0.08246,0.72266 0.781223,-0.30469 -0.08246,-0.72266 z m 50.759341,1.55664 0.572965,0.2461 0.0032,0.002 h 0.0011 l 0.195565,0.0937 0.09937,-0.71289 -0.199798,-0.0957 -0.0022,-0.002 h -0.0022 l -0.577192,-0.25 z m -53.356718,-0.46875 h -0.0021 l -0.0021,0.002 -0.52011,0.24804 0.09937,0.71485 0.515881,-0.24805 h 0.0011 l 0.0032,-0.002 0.25054,-0.10743 -0.09091,-0.71875 z m 56.439314,1.95508 0.768541,0.4043 0.108884,-0.71094 -0.767475,-0.4043 z m -59.7862,-0.27734 -0.0032,0.002 h -0.0021 l -0.261112,0.15234 0.119455,0.70313 0.255827,-0.14844 0.0053,-0.002 0.500025,-0.26367 -0.108883,-0.70899 z m 62.825469,2.03125 0.754792,0.48242 0.131081,-0.69727 -0.755854,-0.48242 z m -65.894331,-0.16797 -0.0022,0.002 -0.0032,0.002 -0.233626,0.16407 0.141656,0.6914 0.228344,-0.16015 0.0054,-0.004 0.513767,-0.32812 -0.131086,-0.69728 z m 68.869103,2.25586 0.591995,0.45703 0.0022,0.002 0.0054,0.004 0.127914,0.10937 0.168086,-0.66797 -0.135313,-0.11718 -0.0032,-0.002 -0.0032,-0.004 -0.599394,-0.46289 z m -71.635625,-0.21875 -0.0032,0.004 -0.0032,0.002 -0.435535,0.37304 0.168081,0.66993 0.428141,-0.36719 0.0063,-0.006 0.288596,-0.22266 -0.154339,-0.67969 z m 74.51103,2.72265 0.130025,0.125 0.0084,0.008 0.549707,0.58007 0.198743,-0.64062 -0.558167,-0.58789 -0.0043,-0.006 -0.0032,-0.002 -0.13954,-0.13282 z m -77.806108,0.37696 0.197682,0.64062 0.69348,-0.73437 -0.197682,-0.64063 z m 80.489113,2.71289 0.401712,0.53906 0.0074,0.0117 0.0032,0.004 0.211424,0.32617 0.255829,-0.56641 -0.222,-0.3418 -0.0054,-0.008 -0.0054,-0.008 -0.412284,-0.55469 z m -82.646724,-0.043 -0.0054,0.008 -0.0054,0.008 -0.474651,0.73243 0.255823,0.5664 0.465141,-0.71679 0.0032,-0.006 0.0074,-0.01 0.134252,-0.18164 -0.234681,-0.5957 z m 84.962906,3.96094 0.181829,0.38867 0.0032,0.006 0.284369,0.75195 0.326657,-0.42383 -0.295995,-0.78125 -0.0054,-0.0137 -0.0074,-0.0156 -0.185,-0.39454 z m -87.617368,1.2207 0.326651,0.42383 0.458797,-1.20703 -0.326655,-0.42383 z m 89.049777,3.7793 0.06555,0.63281 0.04335,0.68945 0.0011,0.0117 0.0011,0.0703 0.398539,-0.0293 -0.001,-0.0957 -0.001,-0.0156 -0.001,-0.0137 -0.0433,-0.70313 -0.001,-0.0137 -0.001,-0.0137 -0.0687,-0.65821 z m -89.9567973,0.51953 -0.0011,0.0137 -0.0011,0.0137 -0.04438,0.70313 -0.0011,0.0137 v 0.0156 l -0.01478,0.70703 0.3995963,0.0274 0.01375,-0.67969 0.0011,-0.0117 0.04016,-0.66211 0.0011,-0.01 0.0054,-0.0508 -0.3921973,-0.13868 z"
       id="path1158-0-7-3"
       inkscape:connector-curvature="0" />
    <g
       id="g1167-33-1"
       transform="matrix(0.84625745,0,0,0.84625745,16.307678,126.21252)"
       style="display:inline;opacity:1"
       inkscape:export-xdpi="212.74001"
       inkscape:export-ydpi="212.74001">
      <path
         inkscape:transform-center-y="-0.57727714"
         inkscape:transform-center-x="0.57728035"
         d="M 16.465458,91.380338 13.242253,90.975746 12.30087,94.084853 9.520888,92.404245 7.3963044,94.86166 5.5402293,92.195627 2.5998047,93.576442 1.988569,90.385966 l -3.2478395,0.06546 0.73929184,-3.163256 -2.99367334,-1.261216 1.9619891,-2.589082 -2.2218739,-2.369815 2.84544073,-1.567231 -1.06589233,-3.068651 3.2368897,-0.274392 0.2743918,-3.23689 3.0686511,1.065893 1.567231,-2.845441 2.3698148,2.221874 2.589082,-1.961989 1.261216,2.993673 3.163257,-0.739292 -0.06546,3.24784 3.190476,0.611235 -1.380815,2.940425 2.666033,1.856075 -2.457415,2.124584 1.680608,2.779982 -3.109106,0.941383 z"
         inkscape:randomized="0"
         inkscape:rounded="0"
         inkscape:flatsided="false"
         sodipodi:arg2="0.99483767"
         sodipodi:arg1="0.78539816"
         sodipodi:r2="9.5860929"
         sodipodi:r1="11.941854"
         sodipodi:cy="82.936172"
         sodipodi:cx="8.0212927"
         sodipodi:sides="15"
         id="path1163-6-5"
         style="opacity:1;fill:#d4aa00;fill-opacity:1;stroke:none;stroke-width:0.42053536;stroke-miterlimit:4;stroke-dasharray:none"
         sodipodi:type="star" />
      <circle
         r="8.8824406"
         cy="82.852379"
         cx="7.9375014"
         id="path1161-7-0"
         style="opacity:1;fill:#ffd42a;fill-opacity:1;stroke:none;stroke-width:0.52916664;stroke-miterlimit:4;stroke-dasharray:none" />
    </g>
    <path
       style="display:inline;opacity:0.5;fill:#ffffff;fill-opacity:1;stroke:#000000;stroke-width:0.41537464;stroke-miterlimit:4;stroke-dasharray:none;stroke-opacity:1"
       d="m 21.129942,187.38285 a 9.0703197,9.0703197 0 0 1 9.070506,9.07051 9.0703197,9.0703197 0 0 1 -9.070506,9.0701 9.0703197,9.0703197 0 0 1 -5.092401,-1.5751 7.8115442,7.8115442 0 0 0 2.184782,0.3164 7.8115442,7.8115442 0 0 0 7.811399,-7.8114 7.8115442,7.8115442 0 0 0 -7.811399,-7.8118 7.8115442,7.8115442 0 0 0 -2.211155,0.3241 9.0703197,9.0703197 0 0 1 5.118774,-1.58281 z"
       id="path1161-1-4-0-2"
       inkscape:connector-curvature="0" />
  </g>
</svg>
