<?xml version="1.0" encoding="UTF-8" standalone="no"?>
<!-- Created with Inkscape (http://www.inkscape.org/) -->

<svg
   xmlns:dc="http://purl.org/dc/elements/1.1/"
   xmlns:cc="http://creativecommons.org/ns#"
   xmlns:rdf="http://www.w3.org/1999/02/22-rdf-syntax-ns#"
   xmlns:svg="http://www.w3.org/2000/svg"
   xmlns="http://www.w3.org/2000/svg"
   xmlns:sodipodi="http://sodipodi.sourceforge.net/DTD/sodipodi-0.dtd"
   xmlns:inkscape="http://www.inkscape.org/namespaces/inkscape"
   width="625"
   height="115"
   viewBox="0 0 165.36459 30.427083"
   version="1.1"
   id="svg8"
   inkscape:version="0.92.3 (2405546, 2018-03-11)"
   sodipodi:docname="Linea.svg">
  <defs
     id="defs2" />
  <sodipodi:namedview
     id="base"
     pagecolor="#ffffff"
     bordercolor="#666666"
     borderopacity="1.0"
     inkscape:pageopacity="0.0"
     inkscape:pageshadow="2"
     inkscape:zoom="0.7"
     inkscape:cx="-196.88424"
     inkscape:cy="-55.014908"
     inkscape:document-units="mm"
     inkscape:current-layer="layer2"
     showgrid="false"
     inkscape:window-width="1920"
     inkscape:window-height="1027"
     inkscape:window-x="-8"
     inkscape:window-y="-8"
     inkscape:window-maximized="1"
     units="px" />
  <metadata
     id="metadata5">
    <rdf:RDF>
      <cc:Work
         rdf:about="">
        <dc:format>image/svg+xml</dc:format>
        <dc:type
           rdf:resource="http://purl.org/dc/dcmitype/StillImage" />
        <dc:title />
      </cc:Work>
    </rdf:RDF>
  </metadata>
  <g
     inkscape:label="Base"
     inkscape:groupmode="layer"
     id="layer1"
     transform="translate(0,-266.57292)"
     style="display:inline"
     sodipodi:insensitive="true" />
  <g
     inkscape:groupmode="layer"
     id="layer2"
     inkscape:label="Dibujo"
     style="display:inline"
     transform="translate(0,-185.47292)">
    <path
       style="color:#000000;font-style:normal;font-variant:normal;font-weight:normal;font-stretch:normal;font-size:medium;line-height:normal;font-family:sans-serif;font-variant-ligatures:normal;font-variant-position:normal;font-variant-caps:normal;font-variant-numeric:normal;font-variant-alternates:normal;font-feature-settings:normal;text-indent:0;text-align:start;text-decoration:none;text-decoration-line:none;text-decoration-style:solid;text-decoration-color:#000000;letter-spacing:normal;word-spacing:normal;text-transform:none;writing-mode:lr-tb;direction:ltr;text-orientation:mixed;dominant-baseline:auto;baseline-shift:baseline;text-anchor:start;white-space:normal;shape-padding:0;clip-rule:nonzero;display:inline;overflow:visible;visibility:visible;opacity:1;isolation:auto;mix-blend-mode:normal;color-interpolation:sRGB;color-interpolation-filters:linearRGB;solid-color:#000000;solid-opacity:1;vector-effect:none;fill:#000000;fill-opacity:1;fill-rule:nonzero;stroke:none;stroke-width:0.73799998;stroke-linecap:butt;stroke-linejoin:miter;stroke-miterlimit:4;stroke-dasharray:1.4759999, 4.42799969;stroke-dashoffset:0;stroke-opacity:1;color-rendering:auto;image-rendering:auto;shape-rendering:auto;text-rendering:auto;enable-background:accumulate"
       d="m 84.587891,188.08984 1.476562,0.0137 0.0059,-0.73829 -1.476562,-0.0117 z m -5.904297,-0.7207 0.0078,0.73828 1.47461,-0.0117 -0.0059,-0.73828 z m 11.800781,0.83008 0.697266,0.0176 h 0.0059 l 0.765625,0.0312 0.03125,-0.73633 -0.771484,-0.0332 h -0.0039 -0.0039 l -0.701172,-0.0176 z m -16.324219,-0.7207 h -0.0039 -0.0039 l -1.38086,0.0586 0.0293,0.73633 1.376953,-0.0566 h 0.0059 l 0.08594,-0.004 -0.01758,-0.73633 z m 22.210938,0.9707 1.472656,0.0879 0.04297,-0.73633 -1.472657,-0.0879 z m -29.503906,-0.61328 0.04492,0.73633 1.472657,-0.0859 -0.04297,-0.73633 z m 35.388672,1.00781 1.20312,0.0918 h 0.006 l 0.25586,0.0234 0.0684,-0.73437 -0.26172,-0.0234 h -0.002 l -0.004,-0.002 -1.21093,-0.0918 z m -40.41211,-0.64453 -0.0039,0.002 h -0.002 l -0.869141,0.0801 0.06836,0.73633 0.863282,-0.082 h 0.0059 l 0.595703,-0.0449 -0.05664,-0.73632 z m 46.27734,1.18359 1.4668,0.16407 0.082,-0.73243 -1.4668,-0.16406 z m -53.033199,-0.50195 0.08203,0.73437 1.466797,-0.16406 -0.08203,-0.73437 z m 58.888669,1.20508 1.06446,0.13672 0.008,0.002 0.38281,0.0566 0.10938,-0.73047 -0.39063,-0.0566 -0.004,-0.002 h -0.004 l -1.07227,-0.13867 z m -63.753904,-0.59375 h -0.0039 l -0.0039,0.002 -0.994141,0.14648 0.107422,0.73047 0.988281,-0.14648 0.0078,-0.002 0.458984,-0.0586 -0.09375,-0.73242 z m 69.578124,1.46093 1.45703,0.24415 0.1211,-0.72657 -1.45508,-0.24609 z m -76.417968,-0.38281 0.123047,0.72852 1.455079,-0.24414 -0.123047,-0.72852 z m 82.222658,1.42774 0.17969,0.0332 v 0.002 l 1.25781,0.26368 0.15039,-0.72266 -1.25586,-0.26367 -0.004,-0.002 h -0.002 l -0.18945,-0.0352 z m -88.031251,-0.29688 0.152343,0.72266 1.44336,-0.30469 -0.152344,-0.72266 z m 93.781251,1.55664 1.05859,0.2461 0.006,0.002 h 0.002 l 0.36132,0.0937 0.1836,-0.71289 -0.36914,-0.0957 -0.004,-0.002 h -0.004 l -1.0664,-0.25 z m -98.580079,-0.46875 h -0.0039 l -0.0039,0.002 -0.960937,0.24804 0.183593,0.71485 0.953125,-0.24805 h 0.002 l 0.0059,-0.002 0.46289,-0.10743 -0.167968,-0.71875 z m 104.275389,1.95508 1.41992,0.4043 0.20118,-0.71094 -1.41797,-0.4043 z m -110.458983,-0.27734 -0.0059,0.002 h -0.0039 l -0.482422,0.15234 0.220703,0.70313 0.472657,-0.14844 0.0098,-0.002 0.923828,-0.26367 -0.201171,-0.70899 z m 116.074223,2.03125 1.39453,0.48242 0.24218,-0.69727 -1.39648,-0.48242 z m -121.744145,-0.16797 -0.0039,0.002 -0.0059,0.002 -0.43164,0.16407 0.261719,0.6914 0.421874,-0.16015 0.0098,-0.004 0.949219,-0.32812 L 21.880859,196 Z m 127.240235,2.25586 1.09375,0.45703 0.004,0.002 0.01,0.004 0.23633,0.10937 0.31055,-0.66797 -0.25,-0.11718 -0.006,-0.002 -0.006,-0.004 -1.10742,-0.46289 z m -132.351563,-0.21875 -0.0059,0.004 -0.0059,0.002 -0.804687,0.37304 0.310547,0.66993 0.791015,-0.36719 0.01172,-0.006 0.533203,-0.22266 -0.285156,-0.67969 z m 137.664063,2.72265 0.24023,0.125 0.0156,0.008 1.01562,0.58007 0.36719,-0.64062 -1.03125,-0.58789 -0.008,-0.006 -0.006,-0.002 -0.25781,-0.13282 z m -143.7519538,0.37696 0.3652348,0.64062 1.28125,-0.73437 -0.365235,-0.64063 z m 148.7089838,2.71289 0.74219,0.53906 0.0137,0.0117 0.006,0.004 0.39062,0.32617 0.47266,-0.56641 -0.41016,-0.3418 -0.01,-0.008 -0.01,-0.008 -0.76172,-0.55469 z m -152.6953119,-0.043 -0.00977,0.008 -0.00977,0.008 -0.8769531,0.73243 0.4726562,0.5664 0.859375,-0.71679 0.00586,-0.006 0.013672,-0.01 0.2480469,-0.18164 -0.4335937,-0.5957 z m 156.9746119,3.96094 0.33594,0.38867 0.006,0.006 0.52539,0.75195 0.60352,-0.42383 -0.54687,-0.78125 -0.01,-0.0137 -0.0137,-0.0156 -0.3418,-0.39454 z m -161.87890875,1.2207 0.60351565,0.42383 0.8476562,-1.20703 -0.6035156,-0.42383 z m 164.52538875,3.7793 0.1211,0.63281 0.0801,0.68945 0.002,0.0117 0.002,0.0703 0.73633,-0.0293 -0.002,-0.0957 -0.002,-0.0156 -0.002,-0.0137 -0.0801,-0.70313 -0.002,-0.0137 -0.002,-0.0137 -0.12695,-0.65821 z m -166.20117,0.51953 -0.001953,0.0137 -0.001953,0.0137 -0.0820313,0.70313 -0.001953,0.0137 v 0.0156 l -0.0273438,0.70703 0.73828126,0.0274 0.0253906,-0.67969 0.001953,-0.0117 0.0742188,-0.66211 0.001953,-0.01 0.009766,-0.0508 -0.72460937,-0.13868 z"
       id="path1158-0-7-3"
       inkscape:connector-curvature="0" />
  </g>
</svg>
